<svg xmlns="http://www.w3.org/2000/svg" version="1.1" xmlns:xlink="http://www.w3.org/1999/xlink" xmlns:svgjs="http://svgjs.com/svgjs" width="1440" height="600" preserveAspectRatio="none" viewBox="0 0 1440 600"><g mask="url(&quot;#SvgjsMask1192&quot;)" fill="none"><path d="M-49.49 553.38L-49.49 553.38" stroke="rgba(37, 146, 167, 1)" stroke-width="1.5"></path><path d="M-49.49 553.38L-88.73 658.49" stroke="rgba(37, 146, 167, 1)" stroke-width="1.5"></path><path d="M-49.49 553.38L60.36 514.82" stroke="rgba(37, 146, 167, 1)" stroke-width="1.5"></path><path d="M-49.49 553.38L57.34 688.79" stroke="rgba(37, 146, 167, 1)" stroke-width="1.5"></path><path d="M-49.49 553.38L233.52 670.78" stroke="rgba(37, 146, 167, 1)" stroke-width="1.5"></path><path d="M-88.73 658.49L-88.73 658.49" stroke="rgba(37, 146, 167, 1)" stroke-width="1.5"></path><path d="M-88.73 658.49L57.34 688.79" stroke="rgba(37, 146, 167, 1)" stroke-width="1.5"></path><path d="M-88.73 658.49L60.36 514.82" stroke="rgba(37, 146, 167, 1)" stroke-width="1.5"></path><path d="M60.36 514.82L60.36 514.82" stroke="rgba(37, 146, 167, 1)" stroke-width="1.5"></path><path d="M60.36 514.82L57.34 688.79" stroke="rgba(37, 146, 167, 1)" stroke-width="1.5"></path><path d="M60.36 514.82L256.13 507.96" stroke="rgba(37, 146, 167, 1)" stroke-width="1.5"></path><path d="M57.34 688.79L57.34 688.79" stroke="rgba(37, 146, 167, 1)" stroke-width="1.5"></path><path d="M57.34 688.79L233.52 670.78" stroke="rgba(37, 146, 167, 1)" stroke-width="1.5"></path><path d="M57.34 688.79L256.13 507.96" stroke="rgba(37, 146, 167, 1)" stroke-width="1.5"></path><path d="M57.34 688.79L412.25 702.08" stroke="rgba(37, 146, 167, 1)" stroke-width="1.5"></path><path d="M256.13 507.96L256.13 507.96" stroke="rgba(37, 146, 167, 1)" stroke-width="1.5"></path><path d="M256.13 507.96L233.52 670.78" stroke="rgba(37, 146, 167, 1)" stroke-width="1.5"></path><path d="M256.13 507.96L385.4 363.01" stroke="rgba(37, 146, 167, 1)" stroke-width="1.5"></path><path d="M256.13 507.96L412.25 702.08" stroke="rgba(37, 146, 167, 1)" stroke-width="1.5"></path><path d="M233.52 670.78L233.52 670.78" stroke="rgba(37, 146, 167, 1)" stroke-width="1.5"></path><path d="M233.52 670.78L412.25 702.08" stroke="rgba(37, 146, 167, 1)" stroke-width="1.5"></path><path d="M385.4 363.01L385.4 363.01" stroke="rgba(37, 146, 167, 1)" stroke-width="1.5"></path><path d="M385.4 363.01L510.05 359.95" stroke="rgba(37, 146, 167, 1)" stroke-width="1.5"></path><path d="M412.25 702.08L412.25 702.08" stroke="rgba(37, 146, 167, 1)" stroke-width="1.5"></path><path d="M412.25 702.08L503.52 662.54" stroke="rgba(37, 146, 167, 1)" stroke-width="1.5"></path><path d="M412.25 702.08L556.22 538.03" stroke="rgba(37, 146, 167, 1)" stroke-width="1.5"></path><path d="M510.05 359.95L510.05 359.95" stroke="rgba(37, 146, 167, 1)" stroke-width="1.5"></path><path d="M510.05 359.95L556.22 538.03" stroke="rgba(37, 146, 167, 1)" stroke-width="1.5"></path><path d="M510.05 359.95L700.09 356.06" stroke="rgba(37, 146, 167, 1)" stroke-width="1.5"></path><path d="M510.05 359.95L677.38 509.71" stroke="rgba(37, 146, 167, 1)" stroke-width="1.5"></path><path d="M556.22 538.03L556.22 538.03" stroke="rgba(37, 146, 167, 1)" stroke-width="1.5"></path><path d="M556.22 538.03L677.38 509.71" stroke="rgba(37, 146, 167, 1)" stroke-width="1.5"></path><path d="M556.22 538.03L503.52 662.54" stroke="rgba(37, 146, 167, 1)" stroke-width="1.5"></path><path d="M503.52 662.54L503.52 662.54" stroke="rgba(37, 146, 167, 1)" stroke-width="1.5"></path><path d="M503.52 662.54L707.57 678.33" stroke="rgba(37, 146, 167, 1)" stroke-width="1.5"></path><path d="M503.52 662.54L677.38 509.71" stroke="rgba(37, 146, 167, 1)" stroke-width="1.5"></path><path d="M503.52 662.54L233.52 670.78" stroke="rgba(37, 146, 167, 1)" stroke-width="1.5"></path><path d="M503.52 662.54L256.13 507.96" stroke="rgba(37, 146, 167, 1)" stroke-width="1.5"></path><path d="M700.09 356.06L700.09 356.06" stroke="rgba(37, 146, 167, 1)" stroke-width="1.5"></path><path d="M700.09 356.06L823.97 372.34" stroke="rgba(37, 146, 167, 1)" stroke-width="1.5"></path><path d="M700.09 356.06L677.38 509.71" stroke="rgba(37, 146, 167, 1)" stroke-width="1.5"></path><path d="M677.38 509.71L677.38 509.71" stroke="rgba(37, 146, 167, 1)" stroke-width="1.5"></path><path d="M677.38 509.71L794.02 506.16" stroke="rgba(37, 146, 167, 1)" stroke-width="1.5"></path><path d="M707.57 678.33L707.57 678.33" stroke="rgba(37, 146, 167, 1)" stroke-width="1.5"></path><path d="M707.57 678.33L836.03 693.54" stroke="rgba(37, 146, 167, 1)" stroke-width="1.5"></path><path d="M707.57 678.33L677.38 509.71" stroke="rgba(37, 146, 167, 1)" stroke-width="1.5"></path><path d="M823.97 372.34L823.97 372.34" stroke="rgba(37, 146, 167, 1)" stroke-width="1.5"></path><path d="M823.97 372.34L794.02 506.16" stroke="rgba(37, 146, 167, 1)" stroke-width="1.5"></path><path d="M823.97 372.34L960.99 364.21" stroke="rgba(37, 146, 167, 1)" stroke-width="1.5"></path><path d="M823.97 372.34L970.07 499.7" stroke="rgba(37, 146, 167, 1)" stroke-width="1.5"></path><path d="M823.97 372.34L677.38 509.71" stroke="rgba(37, 146, 167, 1)" stroke-width="1.5"></path><path d="M794.02 506.16L794.02 506.16" stroke="rgba(37, 146, 167, 1)" stroke-width="1.5"></path><path d="M794.02 506.16L970.07 499.7" stroke="rgba(37, 146, 167, 1)" stroke-width="1.5"></path><path d="M794.02 506.16L700.09 356.06" stroke="rgba(37, 146, 167, 1)" stroke-width="1.5"></path><path d="M794.02 506.16L836.03 693.54" stroke="rgba(37, 146, 167, 1)" stroke-width="1.5"></path><path d="M836.03 693.54L836.03 693.54" stroke="rgba(37, 146, 167, 1)" stroke-width="1.5"></path><path d="M836.03 693.54L942.19 653.81" stroke="rgba(37, 146, 167, 1)" stroke-width="1.5"></path><path d="M962.08 103L962.08 103" stroke="rgba(37, 146, 167, 1)" stroke-width="1.5"></path><path d="M962.08 103L1005.42 207.23" stroke="rgba(37, 146, 167, 1)" stroke-width="1.5"></path><path d="M962.08 103L1155.04 53.87" stroke="rgba(37, 146, 167, 1)" stroke-width="1.5"></path><path d="M962.08 103L1142.16 203.83" stroke="rgba(37, 146, 167, 1)" stroke-width="1.5"></path><path d="M962.08 103L960.99 364.21" stroke="rgba(37, 146, 167, 1)" stroke-width="1.5"></path><path d="M962.08 103L1154.41 -111.83" stroke="rgba(37, 146, 167, 1)" stroke-width="1.5"></path><path d="M1005.42 207.23L1005.42 207.23" stroke="rgba(37, 146, 167, 1)" stroke-width="1.5"></path><path d="M1005.42 207.23L1142.16 203.83" stroke="rgba(37, 146, 167, 1)" stroke-width="1.5"></path><path d="M1005.42 207.23L960.99 364.21" stroke="rgba(37, 146, 167, 1)" stroke-width="1.5"></path><path d="M1005.42 207.23L1128.93 366.66" stroke="rgba(37, 146, 167, 1)" stroke-width="1.5"></path><path d="M1005.42 207.23L1155.04 53.87" stroke="rgba(37, 146, 167, 1)" stroke-width="1.5"></path><path d="M1005.42 207.23L823.97 372.34" stroke="rgba(37, 146, 167, 1)" stroke-width="1.5"></path><path d="M960.99 364.21L960.99 364.21" stroke="rgba(37, 146, 167, 1)" stroke-width="1.5"></path><path d="M960.99 364.21L970.07 499.7" stroke="rgba(37, 146, 167, 1)" stroke-width="1.5"></path><path d="M970.07 499.7L970.07 499.7" stroke="rgba(37, 146, 167, 1)" stroke-width="1.5"></path><path d="M970.07 499.7L942.19 653.81" stroke="rgba(37, 146, 167, 1)" stroke-width="1.5"></path><path d="M970.07 499.7L1139.64 499.97" stroke="rgba(37, 146, 167, 1)" stroke-width="1.5"></path><path d="M942.19 653.81L942.19 653.81" stroke="rgba(37, 146, 167, 1)" stroke-width="1.5"></path><path d="M942.19 653.81L1107.5 696.64" stroke="rgba(37, 146, 167, 1)" stroke-width="1.5"></path><path d="M942.19 653.81L794.02 506.16" stroke="rgba(37, 146, 167, 1)" stroke-width="1.5"></path><path d="M1154.41 -111.83L1154.41 -111.83" stroke="rgba(37, 146, 167, 1)" stroke-width="1.5"></path><path d="M1154.41 -111.83L1277.01 -92.03" stroke="rgba(37, 146, 167, 1)" stroke-width="1.5"></path><path d="M1154.41 -111.83L1155.04 53.87" stroke="rgba(37, 146, 167, 1)" stroke-width="1.5"></path><path d="M1155.04 53.87L1155.04 53.87" stroke="rgba(37, 146, 167, 1)" stroke-width="1.5"></path><path d="M1155.04 53.87L1258.58 85.9" stroke="rgba(37, 146, 167, 1)" stroke-width="1.5"></path><path d="M1155.04 53.87L1142.16 203.83" stroke="rgba(37, 146, 167, 1)" stroke-width="1.5"></path><path d="M1142.16 203.83L1142.16 203.83" stroke="rgba(37, 146, 167, 1)" stroke-width="1.5"></path><path d="M1142.16 203.83L1128.93 366.66" stroke="rgba(37, 146, 167, 1)" stroke-width="1.5"></path><path d="M1142.16 203.83L1258.58 85.9" stroke="rgba(37, 146, 167, 1)" stroke-width="1.5"></path><path d="M1142.16 203.83L1288.14 340.76" stroke="rgba(37, 146, 167, 1)" stroke-width="1.5"></path><path d="M1128.93 366.66L1128.93 366.66" stroke="rgba(37, 146, 167, 1)" stroke-width="1.5"></path><path d="M1128.93 366.66L1139.64 499.97" stroke="rgba(37, 146, 167, 1)" stroke-width="1.5"></path><path d="M1128.93 366.66L1288.14 340.76" stroke="rgba(37, 146, 167, 1)" stroke-width="1.5"></path><path d="M1128.93 366.66L960.99 364.21" stroke="rgba(37, 146, 167, 1)" stroke-width="1.5"></path><path d="M1128.93 366.66L1249.34 519.47" stroke="rgba(37, 146, 167, 1)" stroke-width="1.5"></path><path d="M1139.64 499.97L1139.64 499.97" stroke="rgba(37, 146, 167, 1)" stroke-width="1.5"></path><path d="M1139.64 499.97L1249.34 519.47" stroke="rgba(37, 146, 167, 1)" stroke-width="1.5"></path><path d="M1139.64 499.97L1107.5 696.64" stroke="rgba(37, 146, 167, 1)" stroke-width="1.5"></path><path d="M1139.64 499.97L1288.14 340.76" stroke="rgba(37, 146, 167, 1)" stroke-width="1.5"></path><path d="M1139.64 499.97L960.99 364.21" stroke="rgba(37, 146, 167, 1)" stroke-width="1.5"></path><path d="M1107.5 696.64L1107.5 696.64" stroke="rgba(37, 146, 167, 1)" stroke-width="1.5"></path><path d="M1107.5 696.64L1248.18 696.47" stroke="rgba(37, 146, 167, 1)" stroke-width="1.5"></path><path d="M1277.01 -92.03L1277.01 -92.03" stroke="rgba(37, 146, 167, 1)" stroke-width="1.5"></path><path d="M1277.01 -92.03L1426.86 -101.22" stroke="rgba(37, 146, 167, 1)" stroke-width="1.5"></path><path d="M1277.01 -92.03L1258.58 85.9" stroke="rgba(37, 146, 167, 1)" stroke-width="1.5"></path><path d="M1277.01 -92.03L1155.04 53.87" stroke="rgba(37, 146, 167, 1)" stroke-width="1.5"></path><path d="M1277.01 -92.03L1461.92 104.18" stroke="rgba(37, 146, 167, 1)" stroke-width="1.5"></path><path d="M1258.58 85.9L1258.58 85.9" stroke="rgba(37, 146, 167, 1)" stroke-width="1.5"></path><path d="M1288.14 340.76L1288.14 340.76" stroke="rgba(37, 146, 167, 1)" stroke-width="1.5"></path><path d="M1288.14 340.76L1424.47 355.94" stroke="rgba(37, 146, 167, 1)" stroke-width="1.5"></path><path d="M1249.34 519.47L1249.34 519.47" stroke="rgba(37, 146, 167, 1)" stroke-width="1.5"></path><path d="M1249.34 519.47L1423.43 509.94" stroke="rgba(37, 146, 167, 1)" stroke-width="1.5"></path><path d="M1248.18 696.47L1248.18 696.47" stroke="rgba(37, 146, 167, 1)" stroke-width="1.5"></path><path d="M1248.18 696.47L1393.99 645.57" stroke="rgba(37, 146, 167, 1)" stroke-width="1.5"></path><path d="M1248.18 696.47L1249.34 519.47" stroke="rgba(37, 146, 167, 1)" stroke-width="1.5"></path><path d="M1426.86 -101.22L1426.86 -101.22" stroke="rgba(37, 146, 167, 1)" stroke-width="1.5"></path><path d="M1426.86 -101.22L1575.28 -82" stroke="rgba(37, 146, 167, 1)" stroke-width="1.5"></path><path d="M1461.92 104.18L1461.92 104.18" stroke="rgba(37, 146, 167, 1)" stroke-width="1.5"></path><path d="M1461.92 104.18L1546.83 110.33" stroke="rgba(37, 146, 167, 1)" stroke-width="1.5"></path><path d="M1461.92 104.18L1454.55 197.65" stroke="rgba(37, 146, 167, 1)" stroke-width="1.5"></path><path d="M1461.92 104.18L1588.36 242.51" stroke="rgba(37, 146, 167, 1)" stroke-width="1.5"></path><path d="M1461.92 104.18L1258.58 85.9" stroke="rgba(37, 146, 167, 1)" stroke-width="1.5"></path><path d="M1461.92 104.18L1426.86 -101.22" stroke="rgba(37, 146, 167, 1)" stroke-width="1.5"></path><path d="M1461.92 104.18L1575.28 -82" stroke="rgba(37, 146, 167, 1)" stroke-width="1.5"></path><path d="M1454.55 197.65L1454.55 197.65" stroke="rgba(37, 146, 167, 1)" stroke-width="1.5"></path><path d="M1454.55 197.65L1546.83 110.33" stroke="rgba(37, 146, 167, 1)" stroke-width="1.5"></path><path d="M1454.55 197.65L1588.36 242.51" stroke="rgba(37, 146, 167, 1)" stroke-width="1.5"></path><path d="M1424.47 355.94L1424.47 355.94" stroke="rgba(37, 146, 167, 1)" stroke-width="1.5"></path><path d="M1424.47 355.94L1556.71 375.23" stroke="rgba(37, 146, 167, 1)" stroke-width="1.5"></path><path d="M1424.47 355.94L1423.43 509.94" stroke="rgba(37, 146, 167, 1)" stroke-width="1.5"></path><path d="M1424.47 355.94L1454.55 197.65" stroke="rgba(37, 146, 167, 1)" stroke-width="1.5"></path><path d="M1424.47 355.94L1588.36 242.51" stroke="rgba(37, 146, 167, 1)" stroke-width="1.5"></path><path d="M1424.47 355.94L1540 532.61" stroke="rgba(37, 146, 167, 1)" stroke-width="1.5"></path><path d="M1423.43 509.94L1423.43 509.94" stroke="rgba(37, 146, 167, 1)" stroke-width="1.5"></path><path d="M1423.43 509.94L1540 532.61" stroke="rgba(37, 146, 167, 1)" stroke-width="1.5"></path><path d="M1423.43 509.94L1393.99 645.57" stroke="rgba(37, 146, 167, 1)" stroke-width="1.5"></path><path d="M1393.99 645.57L1393.99 645.57" stroke="rgba(37, 146, 167, 1)" stroke-width="1.5"></path><path d="M1393.99 645.57L1564.97 675.32" stroke="rgba(37, 146, 167, 1)" stroke-width="1.5"></path><path d="M1393.99 645.57L1540 532.61" stroke="rgba(37, 146, 167, 1)" stroke-width="1.5"></path><path d="M1393.99 645.57L1249.34 519.47" stroke="rgba(37, 146, 167, 1)" stroke-width="1.5"></path><path d="M1393.99 645.57L1107.5 696.64" stroke="rgba(37, 146, 167, 1)" stroke-width="1.5"></path><path d="M1575.28 -82L1575.28 -82" stroke="rgba(37, 146, 167, 1)" stroke-width="1.5"></path><path d="M1575.28 -82L1546.83 110.33" stroke="rgba(37, 146, 167, 1)" stroke-width="1.5"></path><path d="M1546.83 110.33L1546.83 110.33" stroke="rgba(37, 146, 167, 1)" stroke-width="1.5"></path><path d="M1546.83 110.33L1588.36 242.51" stroke="rgba(37, 146, 167, 1)" stroke-width="1.5"></path><path d="M1588.36 242.51L1588.36 242.51" stroke="rgba(37, 146, 167, 1)" stroke-width="1.5"></path><path d="M1588.36 242.51L1556.71 375.23" stroke="rgba(37, 146, 167, 1)" stroke-width="1.5"></path><path d="M1556.71 375.23L1556.71 375.23" stroke="rgba(37, 146, 167, 1)" stroke-width="1.5"></path><path d="M1556.71 375.23L1540 532.61" stroke="rgba(37, 146, 167, 1)" stroke-width="1.5"></path><path d="M1556.71 375.23L1423.43 509.94" stroke="rgba(37, 146, 167, 1)" stroke-width="1.5"></path><path d="M1540 532.61L1540 532.61" stroke="rgba(37, 146, 167, 1)" stroke-width="1.5"></path><path d="M1540 532.61L1564.97 675.32" stroke="rgba(37, 146, 167, 1)" stroke-width="1.5"></path><path d="M1564.97 675.32L1564.97 675.32" stroke="rgba(37, 146, 167, 1)" stroke-width="1.5"></path><path d="M1564.97 675.32L1423.43 509.94" stroke="rgba(37, 146, 167, 1)" stroke-width="1.5"></path><path d="M1564.97 675.32L1556.71 375.23" stroke="rgba(37, 146, 167, 1)" stroke-width="1.5"></path><path d="M1564.97 675.32L1248.18 696.47" stroke="rgba(37, 146, 167, 1)" stroke-width="1.5"></path><circle r="5" cx="-49.49" cy="553.38" fill="rgba(37, 146, 167, 1)"></circle><circle r="5" cx="-88.73" cy="658.49" fill="rgba(37, 146, 167, 1)"></circle><circle r="5" cx="60.36" cy="514.82" fill="rgba(37, 146, 167, 1)"></circle><circle r="5" cx="57.34" cy="688.79" fill="rgba(37, 146, 167, 1)"></circle><circle r="5" cx="256.13" cy="507.96" fill="rgba(37, 146, 167, 1)"></circle><circle r="5" cx="233.52" cy="670.78" fill="rgba(37, 146, 167, 1)"></circle><circle r="5" cx="385.4" cy="363.01" fill="rgba(37, 146, 167, 1)"></circle><circle r="5" cx="412.25" cy="702.08" fill="rgba(37, 146, 167, 1)"></circle><circle r="5" cx="510.05" cy="359.95" fill="rgba(37, 146, 167, 1)"></circle><circle r="5" cx="556.22" cy="538.03" fill="rgba(37, 146, 167, 1)"></circle><circle r="5" cx="503.52" cy="662.54" fill="rgba(37, 146, 167, 1)"></circle><circle r="5" cx="700.09" cy="356.06" fill="rgba(37, 146, 167, 1)"></circle><circle r="5" cx="677.38" cy="509.71" fill="rgba(37, 146, 167, 1)"></circle><circle r="5" cx="707.57" cy="678.33" fill="rgba(37, 146, 167, 1)"></circle><circle r="5" cx="823.97" cy="372.34" fill="rgba(37, 146, 167, 1)"></circle><circle r="5" cx="794.02" cy="506.16" fill="rgba(37, 146, 167, 1)"></circle><circle r="5" cx="836.03" cy="693.54" fill="rgba(37, 146, 167, 1)"></circle><circle r="5" cx="962.08" cy="103" fill="rgba(37, 146, 167, 1)"></circle><circle r="5" cx="1005.42" cy="207.23" fill="rgba(37, 146, 167, 1)"></circle><circle r="5" cx="960.99" cy="364.21" fill="rgba(37, 146, 167, 1)"></circle><circle r="5" cx="970.07" cy="499.7" fill="rgba(37, 146, 167, 1)"></circle><circle r="5" cx="942.19" cy="653.81" fill="rgba(37, 146, 167, 1)"></circle><circle r="5" cx="1154.41" cy="-111.83" fill="rgba(37, 146, 167, 1)"></circle><circle r="5" cx="1155.04" cy="53.87" fill="rgba(37, 146, 167, 1)"></circle><circle r="5" cx="1142.16" cy="203.83" fill="rgba(37, 146, 167, 1)"></circle><circle r="5" cx="1128.93" cy="366.66" fill="rgba(37, 146, 167, 1)"></circle><circle r="5" cx="1139.64" cy="499.97" fill="rgba(37, 146, 167, 1)"></circle><circle r="5" cx="1107.5" cy="696.64" fill="rgba(37, 146, 167, 1)"></circle><circle r="5" cx="1277.01" cy="-92.03" fill="rgba(37, 146, 167, 1)"></circle><circle r="5" cx="1258.58" cy="85.9" fill="rgba(37, 146, 167, 1)"></circle><circle r="5" cx="1288.14" cy="340.76" fill="rgba(37, 146, 167, 1)"></circle><circle r="5" cx="1249.34" cy="519.47" fill="rgba(37, 146, 167, 1)"></circle><circle r="5" cx="1248.18" cy="696.47" fill="rgba(37, 146, 167, 1)"></circle><circle r="5" cx="1426.86" cy="-101.22" fill="rgba(37, 146, 167, 1)"></circle><circle r="5" cx="1461.92" cy="104.18" fill="rgba(37, 146, 167, 1)"></circle><circle r="5" cx="1454.55" cy="197.65" fill="rgba(37, 146, 167, 1)"></circle><circle r="5" cx="1424.47" cy="355.94" fill="rgba(37, 146, 167, 1)"></circle><circle r="5" cx="1423.43" cy="509.94" fill="rgba(37, 146, 167, 1)"></circle><circle r="5" cx="1393.99" cy="645.57" fill="rgba(37, 146, 167, 1)"></circle><circle r="5" cx="1575.28" cy="-82" fill="rgba(37, 146, 167, 1)"></circle><circle r="5" cx="1546.83" cy="110.33" fill="rgba(37, 146, 167, 1)"></circle><circle r="5" cx="1588.36" cy="242.51" fill="rgba(37, 146, 167, 1)"></circle><circle r="5" cx="1556.71" cy="375.23" fill="rgba(37, 146, 167, 1)"></circle><circle r="5" cx="1540" cy="532.61" fill="rgba(37, 146, 167, 1)"></circle><circle r="5" cx="1564.97" cy="675.32" fill="rgba(37, 146, 167, 1)"></circle><path d="M-49.5 696.69L-49.5 696.69" stroke="hsl(190, 64.3%, 28.5%)" stroke-width="1.5"></path><path d="M-49.5 696.69L62.59 703.33" stroke="hsl(190, 64.3%, 28.5%)" stroke-width="1.5"></path><path d="M-49.5 696.69L-90.49 536.39" stroke="hsl(190, 64.3%, 28.5%)" stroke-width="1.5"></path><path d="M-49.5 696.69L102.41 559.04" stroke="hsl(190, 64.3%, 28.5%)" stroke-width="1.5"></path><path d="M-49.5 696.69L240.16 649.89" stroke="hsl(190, 64.3%, 28.5%)" stroke-width="1.5"></path><path d="M788.22 692.32L788.22 692.32" stroke="hsl(190, 64.3%, 28.5%)" stroke-width="1.5"></path><path d="M788.22 692.32L806.79 554.71" stroke="hsl(190, 64.3%, 28.5%)" stroke-width="1.5"></path><path d="M788.22 692.32L643.45 686.68" stroke="hsl(190, 64.3%, 28.5%)" stroke-width="1.5"></path><path d="M788.22 692.32L952.11 680.02" stroke="hsl(190, 64.3%, 28.5%)" stroke-width="1.5"></path><path d="M788.22 692.32L641.17 541.54" stroke="hsl(190, 64.3%, 28.5%)" stroke-width="1.5"></path><path d="M788.22 692.32L941.55 515.69" stroke="hsl(190, 64.3%, 28.5%)" stroke-width="1.5"></path><path d="M1096.2 211.85L1096.2 211.85" stroke="hsl(190, 64.3%, 28.5%)" stroke-width="1.5"></path><path d="M1096.2 211.85L1244.59 233.41" stroke="hsl(190, 64.3%, 28.5%)" stroke-width="1.5"></path><path d="M1096.2 211.85L1095.9 376.51" stroke="hsl(190, 64.3%, 28.5%)" stroke-width="1.5"></path><path d="M1096.2 211.85L953.79 345.84" stroke="hsl(190, 64.3%, 28.5%)" stroke-width="1.5"></path><path d="M1096.2 211.85L1237.97 56.56" stroke="hsl(190, 64.3%, 28.5%)" stroke-width="1.5"></path><path d="M1096.2 211.85L1122.35 511.7" stroke="hsl(190, 64.3%, 28.5%)" stroke-width="1.5"></path><path d="M1096.2 211.85L1153.13 -105.88" stroke="hsl(190, 64.3%, 28.5%)" stroke-width="1.5"></path><path d="M1237.97 56.56L1237.97 56.56" stroke="hsl(190, 64.3%, 28.5%)" stroke-width="1.5"></path><path d="M1237.97 56.56L1273.75 -87.58" stroke="hsl(190, 64.3%, 28.5%)" stroke-width="1.5"></path><path d="M1237.97 56.56L1244.59 233.41" stroke="hsl(190, 64.3%, 28.5%)" stroke-width="1.5"></path><path d="M1237.97 56.56L1153.13 -105.88" stroke="hsl(190, 64.3%, 28.5%)" stroke-width="1.5"></path><path d="M1558.09 389.6L1558.09 389.6" stroke="hsl(190, 64.3%, 28.5%)" stroke-width="1.5"></path><path d="M1558.09 389.6L1580.75 495.81" stroke="hsl(190, 64.3%, 28.5%)" stroke-width="1.5"></path><path d="M1558.09 389.6L1423.66 384.95" stroke="hsl(190, 64.3%, 28.5%)" stroke-width="1.5"></path><path d="M1558.09 389.6L1552.94 235.67" stroke="hsl(190, 64.3%, 28.5%)" stroke-width="1.5"></path><path d="M1558.09 389.6L1462.5 532.26" stroke="hsl(190, 64.3%, 28.5%)" stroke-width="1.5"></path><path d="M1558.09 389.6L1462.16 192.04" stroke="hsl(190, 64.3%, 28.5%)" stroke-width="1.5"></path><path d="M-90.49 536.39L-90.49 536.39" stroke="hsl(190, 64.3%, 28.5%)" stroke-width="1.5"></path><path d="M-90.49 536.39L102.41 559.04" stroke="hsl(190, 64.3%, 28.5%)" stroke-width="1.5"></path><path d="M-90.49 536.39L62.59 703.33" stroke="hsl(190, 64.3%, 28.5%)" stroke-width="1.5"></path><path d="M-90.49 536.39L219.96 562.01" stroke="hsl(190, 64.3%, 28.5%)" stroke-width="1.5"></path><path d="M-90.49 536.39L240.16 649.89" stroke="hsl(190, 64.3%, 28.5%)" stroke-width="1.5"></path><path d="M102.41 559.04L102.41 559.04" stroke="hsl(190, 64.3%, 28.5%)" stroke-width="1.5"></path><path d="M102.41 559.04L219.96 562.01" stroke="hsl(190, 64.3%, 28.5%)" stroke-width="1.5"></path><path d="M62.59 703.33L62.59 703.33" stroke="hsl(190, 64.3%, 28.5%)" stroke-width="1.5"></path><path d="M62.59 703.33L102.41 559.04" stroke="hsl(190, 64.3%, 28.5%)" stroke-width="1.5"></path><path d="M62.59 703.33L240.16 649.89" stroke="hsl(190, 64.3%, 28.5%)" stroke-width="1.5"></path><path d="M219.96 562.01L219.96 562.01" stroke="hsl(190, 64.3%, 28.5%)" stroke-width="1.5"></path><path d="M219.96 562.01L240.16 649.89" stroke="hsl(190, 64.3%, 28.5%)" stroke-width="1.5"></path><path d="M240.16 649.89L240.16 649.89" stroke="hsl(190, 64.3%, 28.5%)" stroke-width="1.5"></path><path d="M240.16 649.89L376.6 646.68" stroke="hsl(190, 64.3%, 28.5%)" stroke-width="1.5"></path><path d="M240.16 649.89L102.41 559.04" stroke="hsl(190, 64.3%, 28.5%)" stroke-width="1.5"></path><path d="M240.16 649.89L368.94 534.27" stroke="hsl(190, 64.3%, 28.5%)" stroke-width="1.5"></path><path d="M368.94 534.27L368.94 534.27" stroke="hsl(190, 64.3%, 28.5%)" stroke-width="1.5"></path><path d="M368.94 534.27L376.6 646.68" stroke="hsl(190, 64.3%, 28.5%)" stroke-width="1.5"></path><path d="M376.6 646.68L376.6 646.68" stroke="hsl(190, 64.3%, 28.5%)" stroke-width="1.5"></path><path d="M376.6 646.68L540.32 709.24" stroke="hsl(190, 64.3%, 28.5%)" stroke-width="1.5"></path><path d="M376.6 646.68L219.96 562.01" stroke="hsl(190, 64.3%, 28.5%)" stroke-width="1.5"></path><path d="M376.6 646.68L643.45 686.68" stroke="hsl(190, 64.3%, 28.5%)" stroke-width="1.5"></path><path d="M540.32 709.24L540.32 709.24" stroke="hsl(190, 64.3%, 28.5%)" stroke-width="1.5"></path><path d="M540.32 709.24L643.45 686.68" stroke="hsl(190, 64.3%, 28.5%)" stroke-width="1.5"></path><path d="M641.17 541.54L641.17 541.54" stroke="hsl(190, 64.3%, 28.5%)" stroke-width="1.5"></path><path d="M641.17 541.54L643.45 686.68" stroke="hsl(190, 64.3%, 28.5%)" stroke-width="1.5"></path><path d="M641.17 541.54L806.79 554.71" stroke="hsl(190, 64.3%, 28.5%)" stroke-width="1.5"></path><path d="M641.17 541.54L540.32 709.24" stroke="hsl(190, 64.3%, 28.5%)" stroke-width="1.5"></path><path d="M643.45 686.68L643.45 686.68" stroke="hsl(190, 64.3%, 28.5%)" stroke-width="1.5"></path><path d="M643.45 686.68L806.79 554.71" stroke="hsl(190, 64.3%, 28.5%)" stroke-width="1.5"></path><path d="M800.57 348.73L800.57 348.73" stroke="hsl(190, 64.3%, 28.5%)" stroke-width="1.5"></path><path d="M800.57 348.73L953.79 345.84" stroke="hsl(190, 64.3%, 28.5%)" stroke-width="1.5"></path><path d="M800.57 348.73L806.79 554.71" stroke="hsl(190, 64.3%, 28.5%)" stroke-width="1.5"></path><path d="M806.79 554.71L806.79 554.71" stroke="hsl(190, 64.3%, 28.5%)" stroke-width="1.5"></path><path d="M806.79 554.71L941.55 515.69" stroke="hsl(190, 64.3%, 28.5%)" stroke-width="1.5"></path><path d="M806.79 554.71L952.11 680.02" stroke="hsl(190, 64.3%, 28.5%)" stroke-width="1.5"></path><path d="M953.79 345.84L953.79 345.84" stroke="hsl(190, 64.3%, 28.5%)" stroke-width="1.5"></path><path d="M953.79 345.84L1095.9 376.51" stroke="hsl(190, 64.3%, 28.5%)" stroke-width="1.5"></path><path d="M953.79 345.84L941.55 515.69" stroke="hsl(190, 64.3%, 28.5%)" stroke-width="1.5"></path><path d="M941.55 515.69L941.55 515.69" stroke="hsl(190, 64.3%, 28.5%)" stroke-width="1.5"></path><path d="M941.55 515.69L952.11 680.02" stroke="hsl(190, 64.3%, 28.5%)" stroke-width="1.5"></path><path d="M952.11 680.02L952.11 680.02" stroke="hsl(190, 64.3%, 28.5%)" stroke-width="1.5"></path><path d="M1153.13 -105.88L1153.13 -105.88" stroke="hsl(190, 64.3%, 28.5%)" stroke-width="1.5"></path><path d="M1153.13 -105.88L1273.75 -87.58" stroke="hsl(190, 64.3%, 28.5%)" stroke-width="1.5"></path><path d="M1095.9 376.51L1095.9 376.51" stroke="hsl(190, 64.3%, 28.5%)" stroke-width="1.5"></path><path d="M1095.9 376.51L1122.35 511.7" stroke="hsl(190, 64.3%, 28.5%)" stroke-width="1.5"></path><path d="M1095.9 376.51L1244.59 233.41" stroke="hsl(190, 64.3%, 28.5%)" stroke-width="1.5"></path><path d="M1122.35 511.7L1122.35 511.7" stroke="hsl(190, 64.3%, 28.5%)" stroke-width="1.5"></path><path d="M1122.35 511.7L941.55 515.69" stroke="hsl(190, 64.3%, 28.5%)" stroke-width="1.5"></path><path d="M1122.35 511.7L1304.32 522.49" stroke="hsl(190, 64.3%, 28.5%)" stroke-width="1.5"></path><path d="M1122.35 511.7L1252.58 656.75" stroke="hsl(190, 64.3%, 28.5%)" stroke-width="1.5"></path><path d="M1273.75 -87.58L1273.75 -87.58" stroke="hsl(190, 64.3%, 28.5%)" stroke-width="1.5"></path><path d="M1273.75 -87.58L1421.39 -103.44" stroke="hsl(190, 64.3%, 28.5%)" stroke-width="1.5"></path><path d="M1273.75 -87.58L1570.16 -81.72" stroke="hsl(190, 64.3%, 28.5%)" stroke-width="1.5"></path><path d="M1244.59 233.41L1244.59 233.41" stroke="hsl(190, 64.3%, 28.5%)" stroke-width="1.5"></path><path d="M1244.59 233.41L1462.16 192.04" stroke="hsl(190, 64.3%, 28.5%)" stroke-width="1.5"></path><path d="M1244.59 233.41L1423.66 384.95" stroke="hsl(190, 64.3%, 28.5%)" stroke-width="1.5"></path><path d="M1304.32 522.49L1304.32 522.49" stroke="hsl(190, 64.3%, 28.5%)" stroke-width="1.5"></path><path d="M1304.32 522.49L1252.58 656.75" stroke="hsl(190, 64.3%, 28.5%)" stroke-width="1.5"></path><path d="M1304.32 522.49L1462.5 532.26" stroke="hsl(190, 64.3%, 28.5%)" stroke-width="1.5"></path><path d="M1304.32 522.49L1423.66 384.95" stroke="hsl(190, 64.3%, 28.5%)" stroke-width="1.5"></path><path d="M1304.32 522.49L1432.34 690.05" stroke="hsl(190, 64.3%, 28.5%)" stroke-width="1.5"></path><path d="M1252.58 656.75L1252.58 656.75" stroke="hsl(190, 64.3%, 28.5%)" stroke-width="1.5"></path><path d="M1252.58 656.75L1432.34 690.05" stroke="hsl(190, 64.3%, 28.5%)" stroke-width="1.5"></path><path d="M1252.58 656.75L1462.5 532.26" stroke="hsl(190, 64.3%, 28.5%)" stroke-width="1.5"></path><path d="M1252.58 656.75L952.11 680.02" stroke="hsl(190, 64.3%, 28.5%)" stroke-width="1.5"></path><path d="M1421.39 -103.44L1421.39 -103.44" stroke="hsl(190, 64.3%, 28.5%)" stroke-width="1.5"></path><path d="M1421.39 -103.44L1570.16 -81.72" stroke="hsl(190, 64.3%, 28.5%)" stroke-width="1.5"></path><path d="M1462.16 192.04L1462.16 192.04" stroke="hsl(190, 64.3%, 28.5%)" stroke-width="1.5"></path><path d="M1462.16 192.04L1552.94 235.67" stroke="hsl(190, 64.3%, 28.5%)" stroke-width="1.5"></path><path d="M1462.16 192.04L1576.6 79.85" stroke="hsl(190, 64.3%, 28.5%)" stroke-width="1.5"></path><path d="M1462.16 192.04L1423.66 384.95" stroke="hsl(190, 64.3%, 28.5%)" stroke-width="1.5"></path><path d="M1423.66 384.95L1423.66 384.95" stroke="hsl(190, 64.3%, 28.5%)" stroke-width="1.5"></path><path d="M1423.66 384.95L1462.5 532.26" stroke="hsl(190, 64.3%, 28.5%)" stroke-width="1.5"></path><path d="M1462.5 532.26L1462.5 532.26" stroke="hsl(190, 64.3%, 28.5%)" stroke-width="1.5"></path><path d="M1462.5 532.26L1580.75 495.81" stroke="hsl(190, 64.3%, 28.5%)" stroke-width="1.5"></path><path d="M1432.34 690.05L1432.34 690.05" stroke="hsl(190, 64.3%, 28.5%)" stroke-width="1.5"></path><path d="M1432.34 690.05L1561.03 687.71" stroke="hsl(190, 64.3%, 28.5%)" stroke-width="1.5"></path><path d="M1432.34 690.05L1462.5 532.26" stroke="hsl(190, 64.3%, 28.5%)" stroke-width="1.5"></path><path d="M1432.34 690.05L1580.75 495.81" stroke="hsl(190, 64.3%, 28.5%)" stroke-width="1.5"></path><path d="M1432.34 690.05L1423.66 384.95" stroke="hsl(190, 64.3%, 28.5%)" stroke-width="1.5"></path><path d="M1570.16 -81.72L1570.16 -81.72" stroke="hsl(190, 64.3%, 28.5%)" stroke-width="1.5"></path><path d="M1570.16 -81.72L1576.6 79.85" stroke="hsl(190, 64.3%, 28.5%)" stroke-width="1.5"></path><path d="M1570.16 -81.72L1462.16 192.04" stroke="hsl(190, 64.3%, 28.5%)" stroke-width="1.5"></path><path d="M1570.16 -81.72L1552.94 235.67" stroke="hsl(190, 64.3%, 28.5%)" stroke-width="1.5"></path><path d="M1576.6 79.85L1576.6 79.85" stroke="hsl(190, 64.3%, 28.5%)" stroke-width="1.5"></path><path d="M1576.6 79.85L1552.94 235.67" stroke="hsl(190, 64.3%, 28.5%)" stroke-width="1.5"></path><path d="M1552.94 235.67L1552.94 235.67" stroke="hsl(190, 64.3%, 28.5%)" stroke-width="1.5"></path><path d="M1580.75 495.81L1580.75 495.81" stroke="hsl(190, 64.3%, 28.5%)" stroke-width="1.5"></path><path d="M1580.75 495.81L1423.66 384.95" stroke="hsl(190, 64.3%, 28.5%)" stroke-width="1.5"></path><path d="M1580.75 495.81L1561.03 687.71" stroke="hsl(190, 64.3%, 28.5%)" stroke-width="1.5"></path><path d="M1580.75 495.81L1552.94 235.67" stroke="hsl(190, 64.3%, 28.5%)" stroke-width="1.5"></path><path d="M1561.03 687.71L1561.03 687.71" stroke="hsl(190, 64.3%, 28.5%)" stroke-width="1.5"></path><path d="M1561.03 687.71L1462.5 532.26" stroke="hsl(190, 64.3%, 28.5%)" stroke-width="1.5"></path><circle r="25" cx="-49.5" cy="696.69" fill="url(#SvgjsRadialGradient1193)"></circle><circle r="25" cx="788.22" cy="692.32" fill="url(#SvgjsRadialGradient1193)"></circle><circle r="25" cx="1096.2" cy="211.85" fill="url(#SvgjsRadialGradient1193)"></circle><circle r="25" cx="1237.97" cy="56.56" fill="url(#SvgjsRadialGradient1193)"></circle><circle r="25" cx="1558.09" cy="389.6" fill="url(#SvgjsRadialGradient1193)"></circle><circle r="5" cx="-90.49" cy="536.39" fill="#8aa8ae"></circle><circle r="5" cx="102.41" cy="559.04" fill="#8aa8ae"></circle><circle r="5" cx="62.59" cy="703.33" fill="#8aa8ae"></circle><circle r="5" cx="219.96" cy="562.01" fill="#8aa8ae"></circle><circle r="5" cx="240.16" cy="649.89" fill="#8aa8ae"></circle><circle r="5" cx="368.94" cy="534.27" fill="#8aa8ae"></circle><circle r="5" cx="376.6" cy="646.68" fill="#8aa8ae"></circle><circle r="5" cx="540.32" cy="709.24" fill="#8aa8ae"></circle><circle r="5" cx="641.17" cy="541.54" fill="#8aa8ae"></circle><circle r="5" cx="643.45" cy="686.68" fill="#8aa8ae"></circle><circle r="5" cx="800.57" cy="348.73" fill="#8aa8ae"></circle><circle r="5" cx="806.79" cy="554.71" fill="#8aa8ae"></circle><circle r="5" cx="953.79" cy="345.84" fill="#8aa8ae"></circle><circle r="5" cx="941.55" cy="515.69" fill="#8aa8ae"></circle><circle r="5" cx="952.11" cy="680.02" fill="#8aa8ae"></circle><circle r="5" cx="1153.13" cy="-105.88" fill="#8aa8ae"></circle><circle r="5" cx="1095.9" cy="376.51" fill="#8aa8ae"></circle><circle r="5" cx="1122.35" cy="511.7" fill="#8aa8ae"></circle><circle r="5" cx="1273.75" cy="-87.58" fill="#8aa8ae"></circle><circle r="5" cx="1244.59" cy="233.41" fill="#8aa8ae"></circle><circle r="5" cx="1304.32" cy="522.49" fill="#8aa8ae"></circle><circle r="5" cx="1252.58" cy="656.75" fill="#8aa8ae"></circle><circle r="5" cx="1421.39" cy="-103.44" fill="#8aa8ae"></circle><circle r="5" cx="1462.16" cy="192.04" fill="#8aa8ae"></circle><circle r="5" cx="1423.66" cy="384.95" fill="#8aa8ae"></circle><circle r="5" cx="1462.5" cy="532.26" fill="#8aa8ae"></circle><circle r="5" cx="1432.34" cy="690.05" fill="#8aa8ae"></circle><circle r="5" cx="1570.16" cy="-81.72" fill="#8aa8ae"></circle><circle r="5" cx="1576.6" cy="79.85" fill="#8aa8ae"></circle><circle r="5" cx="1552.94" cy="235.67" fill="#8aa8ae"></circle><circle r="5" cx="1580.75" cy="495.81" fill="#8aa8ae"></circle><circle r="5" cx="1561.03" cy="687.71" fill="#8aa8ae"></circle></g><defs><mask id="SvgjsMask1192"><rect width="1440" height="600" fill="#ffffff"></rect></mask><radialGradient id="SvgjsRadialGradient1193"><stop stop-color="#ffffff" offset="0.1"></stop><stop stop-color="rgba(20, 80, 92, 1)" offset="0.2"></stop><stop stop-color="rgba(20, 80, 92, 0)" offset="1"></stop></radialGradient></defs></svg>