<svg xmlns="http://www.w3.org/2000/svg" version="1.1" xmlns:xlink="http://www.w3.org/1999/xlink" xmlns:svgjs="http://svgjs.com/svgjs" width="1465" height="630" preserveAspectRatio="none" viewBox="0 0 1465 630"><g mask="url(&quot;#SvgjsMask1022&quot;)" fill="none"><path d="M-97.62 407.31L-97.62 407.31" stroke="rgba(37, 146, 167, 1)" stroke-width="1.5"></path><path d="M-97.62 407.31L-102.65 513.48" stroke="rgba(37, 146, 167, 1)" stroke-width="1.5"></path><path d="M-97.62 407.31L64.66 516.28" stroke="rgba(37, 146, 167, 1)" stroke-width="1.5"></path><path d="M-97.62 407.31L38.41 641.77" stroke="rgba(37, 146, 167, 1)" stroke-width="1.5"></path><path d="M-97.62 407.31L-82.32 680.4" stroke="rgba(37, 146, 167, 1)" stroke-width="1.5"></path><path d="M-97.62 407.31L191.71 393.05" stroke="rgba(37, 146, 167, 1)" stroke-width="1.5"></path><path d="M-102.65 513.48L-102.65 513.48" stroke="rgba(37, 146, 167, 1)" stroke-width="1.5"></path><path d="M-102.65 513.48L64.66 516.28" stroke="rgba(37, 146, 167, 1)" stroke-width="1.5"></path><path d="M-102.65 513.48L-82.32 680.4" stroke="rgba(37, 146, 167, 1)" stroke-width="1.5"></path><path d="M-82.32 680.4L-82.32 680.4" stroke="rgba(37, 146, 167, 1)" stroke-width="1.5"></path><path d="M-82.32 680.4L-56.47 802.14" stroke="rgba(37, 146, 167, 1)" stroke-width="1.5"></path><path d="M-82.32 680.4L38.41 641.77" stroke="rgba(37, 146, 167, 1)" stroke-width="1.5"></path><path d="M-56.47 802.14L-56.47 802.14" stroke="rgba(37, 146, 167, 1)" stroke-width="1.5"></path><path d="M-56.47 802.14L102.98 848.02" stroke="rgba(37, 146, 167, 1)" stroke-width="1.5"></path><path d="M64.66 516.28L64.66 516.28" stroke="rgba(37, 146, 167, 1)" stroke-width="1.5"></path><path d="M64.66 516.28L38.41 641.77" stroke="rgba(37, 146, 167, 1)" stroke-width="1.5"></path><path d="M64.66 516.28L191.71 393.05" stroke="rgba(37, 146, 167, 1)" stroke-width="1.5"></path><path d="M64.66 516.28L252.55 540.12" stroke="rgba(37, 146, 167, 1)" stroke-width="1.5"></path><path d="M38.41 641.77L38.41 641.77" stroke="rgba(37, 146, 167, 1)" stroke-width="1.5"></path><path d="M102.98 848.02L102.98 848.02" stroke="rgba(37, 146, 167, 1)" stroke-width="1.5"></path><path d="M102.98 848.02L261.64 861.37" stroke="rgba(37, 146, 167, 1)" stroke-width="1.5"></path><path d="M102.98 848.02L38.41 641.77" stroke="rgba(37, 146, 167, 1)" stroke-width="1.5"></path><path d="M102.98 848.02L-82.32 680.4" stroke="rgba(37, 146, 167, 1)" stroke-width="1.5"></path><path d="M191.71 393.05L191.71 393.05" stroke="rgba(37, 146, 167, 1)" stroke-width="1.5"></path><path d="M191.71 393.05L252.55 540.12" stroke="rgba(37, 146, 167, 1)" stroke-width="1.5"></path><path d="M191.71 393.05L372.43 357.98" stroke="rgba(37, 146, 167, 1)" stroke-width="1.5"></path><path d="M191.71 393.05L411.74 548.7" stroke="rgba(37, 146, 167, 1)" stroke-width="1.5"></path><path d="M191.71 393.05L38.41 641.77" stroke="rgba(37, 146, 167, 1)" stroke-width="1.5"></path><path d="M252.55 540.12L252.55 540.12" stroke="rgba(37, 146, 167, 1)" stroke-width="1.5"></path><path d="M252.55 540.12L411.74 548.7" stroke="rgba(37, 146, 167, 1)" stroke-width="1.5"></path><path d="M252.55 540.12L405.8 642.95" stroke="rgba(37, 146, 167, 1)" stroke-width="1.5"></path><path d="M261.64 861.37L261.64 861.37" stroke="rgba(37, 146, 167, 1)" stroke-width="1.5"></path><path d="M261.64 861.37L408.87 855.15" stroke="rgba(37, 146, 167, 1)" stroke-width="1.5"></path><path d="M261.64 861.37L515.44 818.94" stroke="rgba(37, 146, 167, 1)" stroke-width="1.5"></path><path d="M261.64 861.37L405.8 642.95" stroke="rgba(37, 146, 167, 1)" stroke-width="1.5"></path><path d="M261.64 861.37L38.41 641.77" stroke="rgba(37, 146, 167, 1)" stroke-width="1.5"></path><path d="M261.64 861.37L490.19 639.64" stroke="rgba(37, 146, 167, 1)" stroke-width="1.5"></path><path d="M372.43 357.98L372.43 357.98" stroke="rgba(37, 146, 167, 1)" stroke-width="1.5"></path><path d="M372.43 357.98L496.58 371.8" stroke="rgba(37, 146, 167, 1)" stroke-width="1.5"></path><path d="M372.43 357.98L411.74 548.7" stroke="rgba(37, 146, 167, 1)" stroke-width="1.5"></path><path d="M372.43 357.98L252.55 540.12" stroke="rgba(37, 146, 167, 1)" stroke-width="1.5"></path><path d="M372.43 357.98L546.33 507.56" stroke="rgba(37, 146, 167, 1)" stroke-width="1.5"></path><path d="M411.74 548.7L411.74 548.7" stroke="rgba(37, 146, 167, 1)" stroke-width="1.5"></path><path d="M411.74 548.7L405.8 642.95" stroke="rgba(37, 146, 167, 1)" stroke-width="1.5"></path><path d="M411.74 548.7L490.19 639.64" stroke="rgba(37, 146, 167, 1)" stroke-width="1.5"></path><path d="M411.74 548.7L546.33 507.56" stroke="rgba(37, 146, 167, 1)" stroke-width="1.5"></path><path d="M411.74 548.7L496.58 371.8" stroke="rgba(37, 146, 167, 1)" stroke-width="1.5"></path><path d="M405.8 642.95L405.8 642.95" stroke="rgba(37, 146, 167, 1)" stroke-width="1.5"></path><path d="M405.8 642.95L490.19 639.64" stroke="rgba(37, 146, 167, 1)" stroke-width="1.5"></path><path d="M405.8 642.95L546.33 507.56" stroke="rgba(37, 146, 167, 1)" stroke-width="1.5"></path><path d="M408.87 855.15L408.87 855.15" stroke="rgba(37, 146, 167, 1)" stroke-width="1.5"></path><path d="M408.87 855.15L515.44 818.94" stroke="rgba(37, 146, 167, 1)" stroke-width="1.5"></path><path d="M408.87 855.15L405.8 642.95" stroke="rgba(37, 146, 167, 1)" stroke-width="1.5"></path><path d="M496.58 371.8L496.58 371.8" stroke="rgba(37, 146, 167, 1)" stroke-width="1.5"></path><path d="M496.58 371.8L546.33 507.56" stroke="rgba(37, 146, 167, 1)" stroke-width="1.5"></path><path d="M546.33 507.56L546.33 507.56" stroke="rgba(37, 146, 167, 1)" stroke-width="1.5"></path><path d="M546.33 507.56L490.19 639.64" stroke="rgba(37, 146, 167, 1)" stroke-width="1.5"></path><path d="M490.19 639.64L490.19 639.64" stroke="rgba(37, 146, 167, 1)" stroke-width="1.5"></path><path d="M490.19 639.64L667.02 676.12" stroke="rgba(37, 146, 167, 1)" stroke-width="1.5"></path><path d="M490.19 639.64L515.44 818.94" stroke="rgba(37, 146, 167, 1)" stroke-width="1.5"></path><path d="M515.44 818.94L515.44 818.94" stroke="rgba(37, 146, 167, 1)" stroke-width="1.5"></path><path d="M515.44 818.94L638.38 831.5" stroke="rgba(37, 146, 167, 1)" stroke-width="1.5"></path><path d="M515.44 818.94L405.8 642.95" stroke="rgba(37, 146, 167, 1)" stroke-width="1.5"></path><path d="M644.18 348.47L644.18 348.47" stroke="rgba(37, 146, 167, 1)" stroke-width="1.5"></path><path d="M644.18 348.47L496.58 371.8" stroke="rgba(37, 146, 167, 1)" stroke-width="1.5"></path><path d="M644.18 348.47L546.33 507.56" stroke="rgba(37, 146, 167, 1)" stroke-width="1.5"></path><path d="M709.55 553.85L709.55 553.85" stroke="rgba(37, 146, 167, 1)" stroke-width="1.5"></path><path d="M709.55 553.85L798.28 537.78" stroke="rgba(37, 146, 167, 1)" stroke-width="1.5"></path><path d="M709.55 553.85L667.02 676.12" stroke="rgba(37, 146, 167, 1)" stroke-width="1.5"></path><path d="M709.55 553.85L546.33 507.56" stroke="rgba(37, 146, 167, 1)" stroke-width="1.5"></path><path d="M709.55 553.85L853.85 689.13" stroke="rgba(37, 146, 167, 1)" stroke-width="1.5"></path><path d="M709.55 553.85L834.73 378.69" stroke="rgba(37, 146, 167, 1)" stroke-width="1.5"></path><path d="M709.55 553.85L644.18 348.47" stroke="rgba(37, 146, 167, 1)" stroke-width="1.5"></path><path d="M667.02 676.12L667.02 676.12" stroke="rgba(37, 146, 167, 1)" stroke-width="1.5"></path><path d="M667.02 676.12L638.38 831.5" stroke="rgba(37, 146, 167, 1)" stroke-width="1.5"></path><path d="M667.02 676.12L853.85 689.13" stroke="rgba(37, 146, 167, 1)" stroke-width="1.5"></path><path d="M638.38 831.5L638.38 831.5" stroke="rgba(37, 146, 167, 1)" stroke-width="1.5"></path><path d="M638.38 831.5L831.35 856.14" stroke="rgba(37, 146, 167, 1)" stroke-width="1.5"></path><path d="M638.38 831.5L408.87 855.15" stroke="rgba(37, 146, 167, 1)" stroke-width="1.5"></path><path d="M804.58 245.11L804.58 245.11" stroke="rgba(37, 146, 167, 1)" stroke-width="1.5"></path><path d="M804.58 245.11L834.73 378.69" stroke="rgba(37, 146, 167, 1)" stroke-width="1.5"></path><path d="M804.58 245.11L968.98 242.15" stroke="rgba(37, 146, 167, 1)" stroke-width="1.5"></path><path d="M804.58 245.11L644.18 348.47" stroke="rgba(37, 146, 167, 1)" stroke-width="1.5"></path><path d="M804.58 245.11L1000.98 40.05" stroke="rgba(37, 146, 167, 1)" stroke-width="1.5"></path><path d="M804.58 245.11L798.28 537.78" stroke="rgba(37, 146, 167, 1)" stroke-width="1.5"></path><path d="M834.73 378.69L834.73 378.69" stroke="rgba(37, 146, 167, 1)" stroke-width="1.5"></path><path d="M834.73 378.69L798.28 537.78" stroke="rgba(37, 146, 167, 1)" stroke-width="1.5"></path><path d="M834.73 378.69L948.63 525.21" stroke="rgba(37, 146, 167, 1)" stroke-width="1.5"></path><path d="M834.73 378.69L968.98 242.15" stroke="rgba(37, 146, 167, 1)" stroke-width="1.5"></path><path d="M798.28 537.78L798.28 537.78" stroke="rgba(37, 146, 167, 1)" stroke-width="1.5"></path><path d="M798.28 537.78L948.63 525.21" stroke="rgba(37, 146, 167, 1)" stroke-width="1.5"></path><path d="M853.85 689.13L853.85 689.13" stroke="rgba(37, 146, 167, 1)" stroke-width="1.5"></path><path d="M853.85 689.13L945.34 665.56" stroke="rgba(37, 146, 167, 1)" stroke-width="1.5"></path><path d="M853.85 689.13L798.28 537.78" stroke="rgba(37, 146, 167, 1)" stroke-width="1.5"></path><path d="M853.85 689.13L831.35 856.14" stroke="rgba(37, 146, 167, 1)" stroke-width="1.5"></path><path d="M853.85 689.13L976.66 823.24" stroke="rgba(37, 146, 167, 1)" stroke-width="1.5"></path><path d="M853.85 689.13L948.63 525.21" stroke="rgba(37, 146, 167, 1)" stroke-width="1.5"></path><path d="M831.35 856.14L831.35 856.14" stroke="rgba(37, 146, 167, 1)" stroke-width="1.5"></path><path d="M831.35 856.14L976.66 823.24" stroke="rgba(37, 146, 167, 1)" stroke-width="1.5"></path><path d="M1000.98 40.05L1000.98 40.05" stroke="rgba(37, 146, 167, 1)" stroke-width="1.5"></path><path d="M1000.98 40.05L1111.11 53.16" stroke="rgba(37, 146, 167, 1)" stroke-width="1.5"></path><path d="M1000.98 40.05L1092.89 -83.05" stroke="rgba(37, 146, 167, 1)" stroke-width="1.5"></path><path d="M1000.98 40.05L968.98 242.15" stroke="rgba(37, 146, 167, 1)" stroke-width="1.5"></path><path d="M1000.98 40.05L1110.12 231" stroke="rgba(37, 146, 167, 1)" stroke-width="1.5"></path><path d="M1000.98 40.05L1259.19 48.37" stroke="rgba(37, 146, 167, 1)" stroke-width="1.5"></path><path d="M968.98 242.15L968.98 242.15" stroke="rgba(37, 146, 167, 1)" stroke-width="1.5"></path><path d="M968.98 242.15L1110.12 231" stroke="rgba(37, 146, 167, 1)" stroke-width="1.5"></path><path d="M968.98 242.15L1142.52 363.9" stroke="rgba(37, 146, 167, 1)" stroke-width="1.5"></path><path d="M968.98 242.15L1111.11 53.16" stroke="rgba(37, 146, 167, 1)" stroke-width="1.5"></path><path d="M948.63 525.21L948.63 525.21" stroke="rgba(37, 146, 167, 1)" stroke-width="1.5"></path><path d="M948.63 525.21L945.34 665.56" stroke="rgba(37, 146, 167, 1)" stroke-width="1.5"></path><path d="M945.34 665.56L945.34 665.56" stroke="rgba(37, 146, 167, 1)" stroke-width="1.5"></path><path d="M976.66 823.24L976.66 823.24" stroke="rgba(37, 146, 167, 1)" stroke-width="1.5"></path><path d="M976.66 823.24L1125.49 829.99" stroke="rgba(37, 146, 167, 1)" stroke-width="1.5"></path><path d="M976.66 823.24L945.34 665.56" stroke="rgba(37, 146, 167, 1)" stroke-width="1.5"></path><path d="M976.66 823.24L1118.07 560.59" stroke="rgba(37, 146, 167, 1)" stroke-width="1.5"></path><path d="M976.66 823.24L948.63 525.21" stroke="rgba(37, 146, 167, 1)" stroke-width="1.5"></path><path d="M1092.89 -83.05L1092.89 -83.05" stroke="rgba(37, 146, 167, 1)" stroke-width="1.5"></path><path d="M1092.89 -83.05L1111.11 53.16" stroke="rgba(37, 146, 167, 1)" stroke-width="1.5"></path><path d="M1092.89 -83.05L1247.86 -103.02" stroke="rgba(37, 146, 167, 1)" stroke-width="1.5"></path><path d="M1092.89 -83.05L1259.19 48.37" stroke="rgba(37, 146, 167, 1)" stroke-width="1.5"></path><path d="M1111.11 53.16L1111.11 53.16" stroke="rgba(37, 146, 167, 1)" stroke-width="1.5"></path><path d="M1111.11 53.16L1259.19 48.37" stroke="rgba(37, 146, 167, 1)" stroke-width="1.5"></path><path d="M1111.11 53.16L1110.12 231" stroke="rgba(37, 146, 167, 1)" stroke-width="1.5"></path><path d="M1110.12 231L1110.12 231" stroke="rgba(37, 146, 167, 1)" stroke-width="1.5"></path><path d="M1110.12 231L1142.52 363.9" stroke="rgba(37, 146, 167, 1)" stroke-width="1.5"></path><path d="M1110.12 231L1263.28 234.84" stroke="rgba(37, 146, 167, 1)" stroke-width="1.5"></path><path d="M1142.52 363.9L1142.52 363.9" stroke="rgba(37, 146, 167, 1)" stroke-width="1.5"></path><path d="M1142.52 363.9L1253.45 356.62" stroke="rgba(37, 146, 167, 1)" stroke-width="1.5"></path><path d="M1142.52 363.9L1263.28 234.84" stroke="rgba(37, 146, 167, 1)" stroke-width="1.5"></path><path d="M1142.52 363.9L1118.07 560.59" stroke="rgba(37, 146, 167, 1)" stroke-width="1.5"></path><path d="M1142.52 363.9L1294.27 552.12" stroke="rgba(37, 146, 167, 1)" stroke-width="1.5"></path><path d="M1118.07 560.59L1118.07 560.59" stroke="rgba(37, 146, 167, 1)" stroke-width="1.5"></path><path d="M1118.07 560.59L948.63 525.21" stroke="rgba(37, 146, 167, 1)" stroke-width="1.5"></path><path d="M1118.07 560.59L1294.27 552.12" stroke="rgba(37, 146, 167, 1)" stroke-width="1.5"></path><path d="M1118.07 560.59L1264.69 668.33" stroke="rgba(37, 146, 167, 1)" stroke-width="1.5"></path><path d="M1118.07 560.59L945.34 665.56" stroke="rgba(37, 146, 167, 1)" stroke-width="1.5"></path><path d="M1118.07 560.59L1253.45 356.62" stroke="rgba(37, 146, 167, 1)" stroke-width="1.5"></path><path d="M1125.49 829.99L1125.49 829.99" stroke="rgba(37, 146, 167, 1)" stroke-width="1.5"></path><path d="M1125.49 829.99L1309.69 811.7" stroke="rgba(37, 146, 167, 1)" stroke-width="1.5"></path><path d="M1247.86 -103.02L1247.86 -103.02" stroke="rgba(37, 146, 167, 1)" stroke-width="1.5"></path><path d="M1247.86 -103.02L1259.19 48.37" stroke="rgba(37, 146, 167, 1)" stroke-width="1.5"></path><path d="M1259.19 48.37L1259.19 48.37" stroke="rgba(37, 146, 167, 1)" stroke-width="1.5"></path><path d="M1259.19 48.37L1263.28 234.84" stroke="rgba(37, 146, 167, 1)" stroke-width="1.5"></path><path d="M1259.19 48.37L1442.03 -50.85" stroke="rgba(37, 146, 167, 1)" stroke-width="1.5"></path><path d="M1263.28 234.84L1263.28 234.84" stroke="rgba(37, 146, 167, 1)" stroke-width="1.5"></path><path d="M1263.28 234.84L1253.45 356.62" stroke="rgba(37, 146, 167, 1)" stroke-width="1.5"></path><path d="M1253.45 356.62L1253.45 356.62" stroke="rgba(37, 146, 167, 1)" stroke-width="1.5"></path><path d="M1294.27 552.12L1294.27 552.12" stroke="rgba(37, 146, 167, 1)" stroke-width="1.5"></path><path d="M1294.27 552.12L1264.69 668.33" stroke="rgba(37, 146, 167, 1)" stroke-width="1.5"></path><path d="M1294.27 552.12L1433.69 519.64" stroke="rgba(37, 146, 167, 1)" stroke-width="1.5"></path><path d="M1264.69 668.33L1264.69 668.33" stroke="rgba(37, 146, 167, 1)" stroke-width="1.5"></path><path d="M1264.69 668.33L1309.69 811.7" stroke="rgba(37, 146, 167, 1)" stroke-width="1.5"></path><path d="M1264.69 668.33L1438.48 658.72" stroke="rgba(37, 146, 167, 1)" stroke-width="1.5"></path><path d="M1264.69 668.33L1426.04 807.21" stroke="rgba(37, 146, 167, 1)" stroke-width="1.5"></path><path d="M1264.69 668.33L1125.49 829.99" stroke="rgba(37, 146, 167, 1)" stroke-width="1.5"></path><path d="M1309.69 811.7L1309.69 811.7" stroke="rgba(37, 146, 167, 1)" stroke-width="1.5"></path><path d="M1309.69 811.7L1426.04 807.21" stroke="rgba(37, 146, 167, 1)" stroke-width="1.5"></path><path d="M1442.03 -50.85L1442.03 -50.85" stroke="rgba(37, 146, 167, 1)" stroke-width="1.5"></path><path d="M1442.03 -50.85L1596.45 -77.2" stroke="rgba(37, 146, 167, 1)" stroke-width="1.5"></path><path d="M1442.03 -50.85L1247.86 -103.02" stroke="rgba(37, 146, 167, 1)" stroke-width="1.5"></path><path d="M1442.03 -50.85L1600.99 103.06" stroke="rgba(37, 146, 167, 1)" stroke-width="1.5"></path><path d="M1442.03 -50.85L1598.35 191.49" stroke="rgba(37, 146, 167, 1)" stroke-width="1.5"></path><path d="M1442.03 -50.85L1449.29 243.72" stroke="rgba(37, 146, 167, 1)" stroke-width="1.5"></path><path d="M1449.29 243.72L1449.29 243.72" stroke="rgba(37, 146, 167, 1)" stroke-width="1.5"></path><path d="M1449.29 243.72L1391.65 367.38" stroke="rgba(37, 146, 167, 1)" stroke-width="1.5"></path><path d="M1449.29 243.72L1598.35 191.49" stroke="rgba(37, 146, 167, 1)" stroke-width="1.5"></path><path d="M1449.29 243.72L1573.9 378.57" stroke="rgba(37, 146, 167, 1)" stroke-width="1.5"></path><path d="M1449.29 243.72L1263.28 234.84" stroke="rgba(37, 146, 167, 1)" stroke-width="1.5"></path><path d="M1449.29 243.72L1600.99 103.06" stroke="rgba(37, 146, 167, 1)" stroke-width="1.5"></path><path d="M1449.29 243.72L1253.45 356.62" stroke="rgba(37, 146, 167, 1)" stroke-width="1.5"></path><path d="M1391.65 367.38L1391.65 367.38" stroke="rgba(37, 146, 167, 1)" stroke-width="1.5"></path><path d="M1391.65 367.38L1253.45 356.62" stroke="rgba(37, 146, 167, 1)" stroke-width="1.5"></path><path d="M1391.65 367.38L1433.69 519.64" stroke="rgba(37, 146, 167, 1)" stroke-width="1.5"></path><path d="M1391.65 367.38L1573.9 378.57" stroke="rgba(37, 146, 167, 1)" stroke-width="1.5"></path><path d="M1433.69 519.64L1433.69 519.64" stroke="rgba(37, 146, 167, 1)" stroke-width="1.5"></path><path d="M1433.69 519.64L1545.35 528.21" stroke="rgba(37, 146, 167, 1)" stroke-width="1.5"></path><path d="M1433.69 519.64L1438.48 658.72" stroke="rgba(37, 146, 167, 1)" stroke-width="1.5"></path><path d="M1433.69 519.64L1573.9 378.57" stroke="rgba(37, 146, 167, 1)" stroke-width="1.5"></path><path d="M1433.69 519.64L1544.44 699.59" stroke="rgba(37, 146, 167, 1)" stroke-width="1.5"></path><path d="M1438.48 658.72L1438.48 658.72" stroke="rgba(37, 146, 167, 1)" stroke-width="1.5"></path><path d="M1438.48 658.72L1544.44 699.59" stroke="rgba(37, 146, 167, 1)" stroke-width="1.5"></path><path d="M1438.48 658.72L1426.04 807.21" stroke="rgba(37, 146, 167, 1)" stroke-width="1.5"></path><path d="M1438.48 658.72L1545.35 528.21" stroke="rgba(37, 146, 167, 1)" stroke-width="1.5"></path><path d="M1426.04 807.21L1426.04 807.21" stroke="rgba(37, 146, 167, 1)" stroke-width="1.5"></path><path d="M1426.04 807.21L1571.37 797.76" stroke="rgba(37, 146, 167, 1)" stroke-width="1.5"></path><path d="M1426.04 807.21L1544.44 699.59" stroke="rgba(37, 146, 167, 1)" stroke-width="1.5"></path><path d="M1426.04 807.21L1294.27 552.12" stroke="rgba(37, 146, 167, 1)" stroke-width="1.5"></path><path d="M1596.45 -77.2L1596.45 -77.2" stroke="rgba(37, 146, 167, 1)" stroke-width="1.5"></path><path d="M1596.45 -77.2L1600.99 103.06" stroke="rgba(37, 146, 167, 1)" stroke-width="1.5"></path><path d="M1596.45 -77.2L1598.35 191.49" stroke="rgba(37, 146, 167, 1)" stroke-width="1.5"></path><path d="M1596.45 -77.2L1247.86 -103.02" stroke="rgba(37, 146, 167, 1)" stroke-width="1.5"></path><path d="M1596.45 -77.2L1449.29 243.72" stroke="rgba(37, 146, 167, 1)" stroke-width="1.5"></path><path d="M1600.99 103.06L1600.99 103.06" stroke="rgba(37, 146, 167, 1)" stroke-width="1.5"></path><path d="M1600.99 103.06L1598.35 191.49" stroke="rgba(37, 146, 167, 1)" stroke-width="1.5"></path><path d="M1600.99 103.06L1573.9 378.57" stroke="rgba(37, 146, 167, 1)" stroke-width="1.5"></path><path d="M1598.35 191.49L1598.35 191.49" stroke="rgba(37, 146, 167, 1)" stroke-width="1.5"></path><path d="M1598.35 191.49L1573.9 378.57" stroke="rgba(37, 146, 167, 1)" stroke-width="1.5"></path><path d="M1573.9 378.57L1573.9 378.57" stroke="rgba(37, 146, 167, 1)" stroke-width="1.5"></path><path d="M1573.9 378.57L1545.35 528.21" stroke="rgba(37, 146, 167, 1)" stroke-width="1.5"></path><path d="M1545.35 528.21L1545.35 528.21" stroke="rgba(37, 146, 167, 1)" stroke-width="1.5"></path><path d="M1545.35 528.21L1544.44 699.59" stroke="rgba(37, 146, 167, 1)" stroke-width="1.5"></path><path d="M1545.35 528.21L1391.65 367.38" stroke="rgba(37, 146, 167, 1)" stroke-width="1.5"></path><path d="M1545.35 528.21L1294.27 552.12" stroke="rgba(37, 146, 167, 1)" stroke-width="1.5"></path><path d="M1544.44 699.59L1544.44 699.59" stroke="rgba(37, 146, 167, 1)" stroke-width="1.5"></path><path d="M1544.44 699.59L1571.37 797.76" stroke="rgba(37, 146, 167, 1)" stroke-width="1.5"></path><path d="M1571.37 797.76L1571.37 797.76" stroke="rgba(37, 146, 167, 1)" stroke-width="1.5"></path><circle r="5" cx="-97.62" cy="407.31" fill="rgba(37, 146, 167, 1)"></circle><circle r="5" cx="-102.65" cy="513.48" fill="rgba(37, 146, 167, 1)"></circle><circle r="5" cx="-82.32" cy="680.4" fill="rgba(37, 146, 167, 1)"></circle><circle r="5" cx="-56.47" cy="802.14" fill="rgba(37, 146, 167, 1)"></circle><circle r="5" cx="64.66" cy="516.28" fill="rgba(37, 146, 167, 1)"></circle><circle r="5" cx="38.41" cy="641.77" fill="rgba(37, 146, 167, 1)"></circle><circle r="5" cx="102.98" cy="848.02" fill="rgba(37, 146, 167, 1)"></circle><circle r="5" cx="191.71" cy="393.05" fill="rgba(37, 146, 167, 1)"></circle><circle r="5" cx="252.55" cy="540.12" fill="rgba(37, 146, 167, 1)"></circle><circle r="5" cx="261.64" cy="861.37" fill="rgba(37, 146, 167, 1)"></circle><circle r="5" cx="372.43" cy="357.98" fill="rgba(37, 146, 167, 1)"></circle><circle r="5" cx="411.74" cy="548.7" fill="rgba(37, 146, 167, 1)"></circle><circle r="5" cx="405.8" cy="642.95" fill="rgba(37, 146, 167, 1)"></circle><circle r="5" cx="408.87" cy="855.15" fill="rgba(37, 146, 167, 1)"></circle><circle r="5" cx="496.58" cy="371.8" fill="rgba(37, 146, 167, 1)"></circle><circle r="5" cx="546.33" cy="507.56" fill="rgba(37, 146, 167, 1)"></circle><circle r="5" cx="490.19" cy="639.64" fill="rgba(37, 146, 167, 1)"></circle><circle r="5" cx="515.44" cy="818.94" fill="rgba(37, 146, 167, 1)"></circle><circle r="5" cx="644.18" cy="348.47" fill="rgba(37, 146, 167, 1)"></circle><circle r="5" cx="709.55" cy="553.85" fill="rgba(37, 146, 167, 1)"></circle><circle r="5" cx="667.02" cy="676.12" fill="rgba(37, 146, 167, 1)"></circle><circle r="5" cx="638.38" cy="831.5" fill="rgba(37, 146, 167, 1)"></circle><circle r="5" cx="804.58" cy="245.11" fill="rgba(37, 146, 167, 1)"></circle><circle r="5" cx="834.73" cy="378.69" fill="rgba(37, 146, 167, 1)"></circle><circle r="5" cx="798.28" cy="537.78" fill="rgba(37, 146, 167, 1)"></circle><circle r="5" cx="853.85" cy="689.13" fill="rgba(37, 146, 167, 1)"></circle><circle r="5" cx="831.35" cy="856.14" fill="rgba(37, 146, 167, 1)"></circle><circle r="5" cx="1000.98" cy="40.05" fill="rgba(37, 146, 167, 1)"></circle><circle r="5" cx="968.98" cy="242.15" fill="rgba(37, 146, 167, 1)"></circle><circle r="5" cx="948.63" cy="525.21" fill="rgba(37, 146, 167, 1)"></circle><circle r="5" cx="945.34" cy="665.56" fill="rgba(37, 146, 167, 1)"></circle><circle r="5" cx="976.66" cy="823.24" fill="rgba(37, 146, 167, 1)"></circle><circle r="5" cx="1092.89" cy="-83.05" fill="rgba(37, 146, 167, 1)"></circle><circle r="5" cx="1111.11" cy="53.16" fill="rgba(37, 146, 167, 1)"></circle><circle r="5" cx="1110.12" cy="231" fill="rgba(37, 146, 167, 1)"></circle><circle r="5" cx="1142.52" cy="363.9" fill="rgba(37, 146, 167, 1)"></circle><circle r="5" cx="1118.07" cy="560.59" fill="rgba(37, 146, 167, 1)"></circle><circle r="5" cx="1125.49" cy="829.99" fill="rgba(37, 146, 167, 1)"></circle><circle r="5" cx="1247.86" cy="-103.02" fill="rgba(37, 146, 167, 1)"></circle><circle r="5" cx="1259.19" cy="48.37" fill="rgba(37, 146, 167, 1)"></circle><circle r="5" cx="1263.28" cy="234.84" fill="rgba(37, 146, 167, 1)"></circle><circle r="5" cx="1253.45" cy="356.62" fill="rgba(37, 146, 167, 1)"></circle><circle r="5" cx="1294.27" cy="552.12" fill="rgba(37, 146, 167, 1)"></circle><circle r="5" cx="1264.69" cy="668.33" fill="rgba(37, 146, 167, 1)"></circle><circle r="5" cx="1309.69" cy="811.7" fill="rgba(37, 146, 167, 1)"></circle><circle r="5" cx="1442.03" cy="-50.85" fill="rgba(37, 146, 167, 1)"></circle><circle r="5" cx="1449.29" cy="243.72" fill="rgba(37, 146, 167, 1)"></circle><circle r="5" cx="1391.65" cy="367.38" fill="rgba(37, 146, 167, 1)"></circle><circle r="5" cx="1433.69" cy="519.64" fill="rgba(37, 146, 167, 1)"></circle><circle r="5" cx="1438.48" cy="658.72" fill="rgba(37, 146, 167, 1)"></circle><circle r="5" cx="1426.04" cy="807.21" fill="rgba(37, 146, 167, 1)"></circle><circle r="5" cx="1596.45" cy="-77.2" fill="rgba(37, 146, 167, 1)"></circle><circle r="5" cx="1600.99" cy="103.06" fill="rgba(37, 146, 167, 1)"></circle><circle r="5" cx="1598.35" cy="191.49" fill="rgba(37, 146, 167, 1)"></circle><circle r="5" cx="1573.9" cy="378.57" fill="rgba(37, 146, 167, 1)"></circle><circle r="5" cx="1545.35" cy="528.21" fill="rgba(37, 146, 167, 1)"></circle><circle r="5" cx="1544.44" cy="699.59" fill="rgba(37, 146, 167, 1)"></circle><circle r="5" cx="1571.37" cy="797.76" fill="rgba(37, 146, 167, 1)"></circle><path d="M-54.56 828.17L-54.56 828.17" stroke="hsl(190, 64.3%, 28.5%)" stroke-width="1.5"></path><path d="M-54.56 828.17L63.29 850.15" stroke="hsl(190, 64.3%, 28.5%)" stroke-width="1.5"></path><path d="M-54.56 828.17L-73.93 670.71" stroke="hsl(190, 64.3%, 28.5%)" stroke-width="1.5"></path><path d="M-54.56 828.17L46.16 703.33" stroke="hsl(190, 64.3%, 28.5%)" stroke-width="1.5"></path><path d="M-54.56 828.17L-78.73 536.2" stroke="hsl(190, 64.3%, 28.5%)" stroke-width="1.5"></path><path d="M-54.56 828.17L253.73 843.92" stroke="hsl(190, 64.3%, 28.5%)" stroke-width="1.5"></path><path d="M-54.56 828.17L231.06 696.19" stroke="hsl(190, 64.3%, 28.5%)" stroke-width="1.5"></path><path d="M64.13 503.82L64.13 503.82" stroke="hsl(190, 64.3%, 28.5%)" stroke-width="1.5"></path><path d="M64.13 503.82L-78.73 536.2" stroke="hsl(190, 64.3%, 28.5%)" stroke-width="1.5"></path><path d="M64.13 503.82L46.16 703.33" stroke="hsl(190, 64.3%, 28.5%)" stroke-width="1.5"></path><path d="M359.33 814.37L359.33 814.37" stroke="hsl(190, 64.3%, 28.5%)" stroke-width="1.5"></path><path d="M359.33 814.37L253.73 843.92" stroke="hsl(190, 64.3%, 28.5%)" stroke-width="1.5"></path><path d="M359.33 814.37L502.57 855.64" stroke="hsl(190, 64.3%, 28.5%)" stroke-width="1.5"></path><path d="M359.33 814.37L366.94 651.38" stroke="hsl(190, 64.3%, 28.5%)" stroke-width="1.5"></path><path d="M359.33 814.37L231.06 696.19" stroke="hsl(190, 64.3%, 28.5%)" stroke-width="1.5"></path><path d="M359.33 814.37L512.01 658.13" stroke="hsl(190, 64.3%, 28.5%)" stroke-width="1.5"></path><path d="M359.33 814.37L353.22 528.3" stroke="hsl(190, 64.3%, 28.5%)" stroke-width="1.5"></path><path d="M958.45 353.75L958.45 353.75" stroke="hsl(190, 64.3%, 28.5%)" stroke-width="1.5"></path><path d="M958.45 353.75L822.11 385.81" stroke="hsl(190, 64.3%, 28.5%)" stroke-width="1.5"></path><path d="M958.45 353.75L1113.31 370.14" stroke="hsl(190, 64.3%, 28.5%)" stroke-width="1.5"></path><path d="M958.45 353.75L1002.43 554.99" stroke="hsl(190, 64.3%, 28.5%)" stroke-width="1.5"></path><path d="M971.46 711.99L971.46 711.99" stroke="hsl(190, 64.3%, 28.5%)" stroke-width="1.5"></path><path d="M971.46 711.99L996.79 836.75" stroke="hsl(190, 64.3%, 28.5%)" stroke-width="1.5"></path><path d="M971.46 711.99L836.22 670.67" stroke="hsl(190, 64.3%, 28.5%)" stroke-width="1.5"></path><path d="M971.46 711.99L1002.43 554.99" stroke="hsl(190, 64.3%, 28.5%)" stroke-width="1.5"></path><path d="M971.46 711.99L831.01 818.21" stroke="hsl(190, 64.3%, 28.5%)" stroke-width="1.5"></path><path d="M1138.1 639.34L1138.1 639.34" stroke="hsl(190, 64.3%, 28.5%)" stroke-width="1.5"></path><path d="M1138.1 639.34L1104.16 543.68" stroke="hsl(190, 64.3%, 28.5%)" stroke-width="1.5"></path><path d="M1138.1 639.34L1254.05 697.09" stroke="hsl(190, 64.3%, 28.5%)" stroke-width="1.5"></path><path d="M1138.1 639.34L1002.43 554.99" stroke="hsl(190, 64.3%, 28.5%)" stroke-width="1.5"></path><path d="M1138.1 639.34L1160.87 797.75" stroke="hsl(190, 64.3%, 28.5%)" stroke-width="1.5"></path><path d="M1138.1 639.34L971.46 711.99" stroke="hsl(190, 64.3%, 28.5%)" stroke-width="1.5"></path><path d="M1138.1 639.34L1310.38 544.46" stroke="hsl(190, 64.3%, 28.5%)" stroke-width="1.5"></path><path d="M1307.58 398.05L1307.58 398.05" stroke="hsl(190, 64.3%, 28.5%)" stroke-width="1.5"></path><path d="M1307.58 398.05L1407.97 341.59" stroke="hsl(190, 64.3%, 28.5%)" stroke-width="1.5"></path><path d="M1307.58 398.05L1310.38 544.46" stroke="hsl(190, 64.3%, 28.5%)" stroke-width="1.5"></path><path d="M1426.96 225.11L1426.96 225.11" stroke="hsl(190, 64.3%, 28.5%)" stroke-width="1.5"></path><path d="M1426.96 225.11L1407.97 341.59" stroke="hsl(190, 64.3%, 28.5%)" stroke-width="1.5"></path><path d="M1426.96 225.11L1285.2 188.42" stroke="hsl(190, 64.3%, 28.5%)" stroke-width="1.5"></path><path d="M1426.96 225.11L1445.66 56.25" stroke="hsl(190, 64.3%, 28.5%)" stroke-width="1.5"></path><path d="M1426.96 225.11L1597.42 253.8" stroke="hsl(190, 64.3%, 28.5%)" stroke-width="1.5"></path><path d="M1543.53 397.85L1543.53 397.85" stroke="hsl(190, 64.3%, 28.5%)" stroke-width="1.5"></path><path d="M1543.53 397.85L1561.36 526.37" stroke="hsl(190, 64.3%, 28.5%)" stroke-width="1.5"></path><path d="M1543.53 397.85L1407.97 341.59" stroke="hsl(190, 64.3%, 28.5%)" stroke-width="1.5"></path><path d="M-78.73 536.2L-78.73 536.2" stroke="hsl(190, 64.3%, 28.5%)" stroke-width="1.5"></path><path d="M-78.73 536.2L-73.93 670.71" stroke="hsl(190, 64.3%, 28.5%)" stroke-width="1.5"></path><path d="M-78.73 536.2L46.16 703.33" stroke="hsl(190, 64.3%, 28.5%)" stroke-width="1.5"></path><path d="M-73.93 670.71L-73.93 670.71" stroke="hsl(190, 64.3%, 28.5%)" stroke-width="1.5"></path><path d="M-73.93 670.71L46.16 703.33" stroke="hsl(190, 64.3%, 28.5%)" stroke-width="1.5"></path><path d="M-73.93 670.71L64.13 503.82" stroke="hsl(190, 64.3%, 28.5%)" stroke-width="1.5"></path><path d="M-73.93 670.71L63.29 850.15" stroke="hsl(190, 64.3%, 28.5%)" stroke-width="1.5"></path><path d="M-73.93 670.71L231.06 696.19" stroke="hsl(190, 64.3%, 28.5%)" stroke-width="1.5"></path><path d="M46.16 703.33L46.16 703.33" stroke="hsl(190, 64.3%, 28.5%)" stroke-width="1.5"></path><path d="M46.16 703.33L63.29 850.15" stroke="hsl(190, 64.3%, 28.5%)" stroke-width="1.5"></path><path d="M63.29 850.15L63.29 850.15" stroke="hsl(190, 64.3%, 28.5%)" stroke-width="1.5"></path><path d="M63.29 850.15L253.73 843.92" stroke="hsl(190, 64.3%, 28.5%)" stroke-width="1.5"></path><path d="M63.29 850.15L231.06 696.19" stroke="hsl(190, 64.3%, 28.5%)" stroke-width="1.5"></path><path d="M63.29 850.15L359.33 814.37" stroke="hsl(190, 64.3%, 28.5%)" stroke-width="1.5"></path><path d="M231.06 696.19L231.06 696.19" stroke="hsl(190, 64.3%, 28.5%)" stroke-width="1.5"></path><path d="M231.06 696.19L366.94 651.38" stroke="hsl(190, 64.3%, 28.5%)" stroke-width="1.5"></path><path d="M231.06 696.19L253.73 843.92" stroke="hsl(190, 64.3%, 28.5%)" stroke-width="1.5"></path><path d="M253.73 843.92L253.73 843.92" stroke="hsl(190, 64.3%, 28.5%)" stroke-width="1.5"></path><path d="M353.22 528.3L353.22 528.3" stroke="hsl(190, 64.3%, 28.5%)" stroke-width="1.5"></path><path d="M353.22 528.3L366.94 651.38" stroke="hsl(190, 64.3%, 28.5%)" stroke-width="1.5"></path><path d="M353.22 528.3L487.9 493.06" stroke="hsl(190, 64.3%, 28.5%)" stroke-width="1.5"></path><path d="M353.22 528.3L512.01 658.13" stroke="hsl(190, 64.3%, 28.5%)" stroke-width="1.5"></path><path d="M353.22 528.3L231.06 696.19" stroke="hsl(190, 64.3%, 28.5%)" stroke-width="1.5"></path><path d="M366.94 651.38L366.94 651.38" stroke="hsl(190, 64.3%, 28.5%)" stroke-width="1.5"></path><path d="M366.94 651.38L512.01 658.13" stroke="hsl(190, 64.3%, 28.5%)" stroke-width="1.5"></path><path d="M366.94 651.38L487.9 493.06" stroke="hsl(190, 64.3%, 28.5%)" stroke-width="1.5"></path><path d="M487.9 493.06L487.9 493.06" stroke="hsl(190, 64.3%, 28.5%)" stroke-width="1.5"></path><path d="M487.9 493.06L512.01 658.13" stroke="hsl(190, 64.3%, 28.5%)" stroke-width="1.5"></path><path d="M512.01 658.13L512.01 658.13" stroke="hsl(190, 64.3%, 28.5%)" stroke-width="1.5"></path><path d="M512.01 658.13L702.71 696.24" stroke="hsl(190, 64.3%, 28.5%)" stroke-width="1.5"></path><path d="M512.01 658.13L502.57 855.64" stroke="hsl(190, 64.3%, 28.5%)" stroke-width="1.5"></path><path d="M512.01 658.13L685.8 539.07" stroke="hsl(190, 64.3%, 28.5%)" stroke-width="1.5"></path><path d="M502.57 855.64L502.57 855.64" stroke="hsl(190, 64.3%, 28.5%)" stroke-width="1.5"></path><path d="M685.8 539.07L685.8 539.07" stroke="hsl(190, 64.3%, 28.5%)" stroke-width="1.5"></path><path d="M685.8 539.07L702.71 696.24" stroke="hsl(190, 64.3%, 28.5%)" stroke-width="1.5"></path><path d="M685.8 539.07L836.22 670.67" stroke="hsl(190, 64.3%, 28.5%)" stroke-width="1.5"></path><path d="M702.71 696.24L702.71 696.24" stroke="hsl(190, 64.3%, 28.5%)" stroke-width="1.5"></path><path d="M702.71 696.24L836.22 670.67" stroke="hsl(190, 64.3%, 28.5%)" stroke-width="1.5"></path><path d="M702.71 696.24L707.5 845.93" stroke="hsl(190, 64.3%, 28.5%)" stroke-width="1.5"></path><path d="M702.71 696.24L831.01 818.21" stroke="hsl(190, 64.3%, 28.5%)" stroke-width="1.5"></path><path d="M707.5 845.93L707.5 845.93" stroke="hsl(190, 64.3%, 28.5%)" stroke-width="1.5"></path><path d="M707.5 845.93L831.01 818.21" stroke="hsl(190, 64.3%, 28.5%)" stroke-width="1.5"></path><path d="M822.11 385.81L822.11 385.81" stroke="hsl(190, 64.3%, 28.5%)" stroke-width="1.5"></path><path d="M822.11 385.81L685.8 539.07" stroke="hsl(190, 64.3%, 28.5%)" stroke-width="1.5"></path><path d="M822.11 385.81L1002.43 554.99" stroke="hsl(190, 64.3%, 28.5%)" stroke-width="1.5"></path><path d="M822.11 385.81L836.22 670.67" stroke="hsl(190, 64.3%, 28.5%)" stroke-width="1.5"></path><path d="M822.11 385.81L1113.31 370.14" stroke="hsl(190, 64.3%, 28.5%)" stroke-width="1.5"></path><path d="M836.22 670.67L836.22 670.67" stroke="hsl(190, 64.3%, 28.5%)" stroke-width="1.5"></path><path d="M836.22 670.67L831.01 818.21" stroke="hsl(190, 64.3%, 28.5%)" stroke-width="1.5"></path><path d="M831.01 818.21L831.01 818.21" stroke="hsl(190, 64.3%, 28.5%)" stroke-width="1.5"></path><path d="M831.01 818.21L996.79 836.75" stroke="hsl(190, 64.3%, 28.5%)" stroke-width="1.5"></path><path d="M1002.43 554.99L1002.43 554.99" stroke="hsl(190, 64.3%, 28.5%)" stroke-width="1.5"></path><path d="M1002.43 554.99L1104.16 543.68" stroke="hsl(190, 64.3%, 28.5%)" stroke-width="1.5"></path><path d="M996.79 836.75L996.79 836.75" stroke="hsl(190, 64.3%, 28.5%)" stroke-width="1.5"></path><path d="M996.79 836.75L1160.87 797.75" stroke="hsl(190, 64.3%, 28.5%)" stroke-width="1.5"></path><path d="M1123.17 192.92L1123.17 192.92" stroke="hsl(190, 64.3%, 28.5%)" stroke-width="1.5"></path><path d="M1123.17 192.92L1285.2 188.42" stroke="hsl(190, 64.3%, 28.5%)" stroke-width="1.5"></path><path d="M1123.17 192.92L1255.99 85.33" stroke="hsl(190, 64.3%, 28.5%)" stroke-width="1.5"></path><path d="M1123.17 192.92L1113.31 370.14" stroke="hsl(190, 64.3%, 28.5%)" stroke-width="1.5"></path><path d="M1123.17 192.92L958.45 353.75" stroke="hsl(190, 64.3%, 28.5%)" stroke-width="1.5"></path><path d="M1113.31 370.14L1113.31 370.14" stroke="hsl(190, 64.3%, 28.5%)" stroke-width="1.5"></path><path d="M1113.31 370.14L1104.16 543.68" stroke="hsl(190, 64.3%, 28.5%)" stroke-width="1.5"></path><path d="M1113.31 370.14L1307.58 398.05" stroke="hsl(190, 64.3%, 28.5%)" stroke-width="1.5"></path><path d="M1113.31 370.14L1002.43 554.99" stroke="hsl(190, 64.3%, 28.5%)" stroke-width="1.5"></path><path d="M1113.31 370.14L1285.2 188.42" stroke="hsl(190, 64.3%, 28.5%)" stroke-width="1.5"></path><path d="M1104.16 543.68L1104.16 543.68" stroke="hsl(190, 64.3%, 28.5%)" stroke-width="1.5"></path><path d="M1104.16 543.68L1310.38 544.46" stroke="hsl(190, 64.3%, 28.5%)" stroke-width="1.5"></path><path d="M1104.16 543.68L971.46 711.99" stroke="hsl(190, 64.3%, 28.5%)" stroke-width="1.5"></path><path d="M1160.87 797.75L1160.87 797.75" stroke="hsl(190, 64.3%, 28.5%)" stroke-width="1.5"></path><path d="M1160.87 797.75L1254.05 697.09" stroke="hsl(190, 64.3%, 28.5%)" stroke-width="1.5"></path><path d="M1160.87 797.75L1301.56 851.66" stroke="hsl(190, 64.3%, 28.5%)" stroke-width="1.5"></path><path d="M1160.87 797.75L971.46 711.99" stroke="hsl(190, 64.3%, 28.5%)" stroke-width="1.5"></path><path d="M1239.97 -66.87L1239.97 -66.87" stroke="hsl(190, 64.3%, 28.5%)" stroke-width="1.5"></path><path d="M1239.97 -66.87L1255.99 85.33" stroke="hsl(190, 64.3%, 28.5%)" stroke-width="1.5"></path><path d="M1239.97 -66.87L1401.03 -45.35" stroke="hsl(190, 64.3%, 28.5%)" stroke-width="1.5"></path><path d="M1239.97 -66.87L1445.66 56.25" stroke="hsl(190, 64.3%, 28.5%)" stroke-width="1.5"></path><path d="M1239.97 -66.87L1285.2 188.42" stroke="hsl(190, 64.3%, 28.5%)" stroke-width="1.5"></path><path d="M1255.99 85.33L1255.99 85.33" stroke="hsl(190, 64.3%, 28.5%)" stroke-width="1.5"></path><path d="M1255.99 85.33L1285.2 188.42" stroke="hsl(190, 64.3%, 28.5%)" stroke-width="1.5"></path><path d="M1285.2 188.42L1285.2 188.42" stroke="hsl(190, 64.3%, 28.5%)" stroke-width="1.5"></path><path d="M1310.38 544.46L1310.38 544.46" stroke="hsl(190, 64.3%, 28.5%)" stroke-width="1.5"></path><path d="M1310.38 544.46L1389.43 553.82" stroke="hsl(190, 64.3%, 28.5%)" stroke-width="1.5"></path><path d="M1310.38 544.46L1426.6 653.65" stroke="hsl(190, 64.3%, 28.5%)" stroke-width="1.5"></path><path d="M1310.38 544.46L1254.05 697.09" stroke="hsl(190, 64.3%, 28.5%)" stroke-width="1.5"></path><path d="M1254.05 697.09L1254.05 697.09" stroke="hsl(190, 64.3%, 28.5%)" stroke-width="1.5"></path><path d="M1254.05 697.09L1301.56 851.66" stroke="hsl(190, 64.3%, 28.5%)" stroke-width="1.5"></path><path d="M1301.56 851.66L1301.56 851.66" stroke="hsl(190, 64.3%, 28.5%)" stroke-width="1.5"></path><path d="M1301.56 851.66L1426.6 653.65" stroke="hsl(190, 64.3%, 28.5%)" stroke-width="1.5"></path><path d="M1301.56 851.66L1138.1 639.34" stroke="hsl(190, 64.3%, 28.5%)" stroke-width="1.5"></path><path d="M1301.56 851.66L996.79 836.75" stroke="hsl(190, 64.3%, 28.5%)" stroke-width="1.5"></path><path d="M1301.56 851.66L1310.38 544.46" stroke="hsl(190, 64.3%, 28.5%)" stroke-width="1.5"></path><path d="M1401.03 -45.35L1401.03 -45.35" stroke="hsl(190, 64.3%, 28.5%)" stroke-width="1.5"></path><path d="M1401.03 -45.35L1445.66 56.25" stroke="hsl(190, 64.3%, 28.5%)" stroke-width="1.5"></path><path d="M1401.03 -45.35L1255.99 85.33" stroke="hsl(190, 64.3%, 28.5%)" stroke-width="1.5"></path><path d="M1445.66 56.25L1445.66 56.25" stroke="hsl(190, 64.3%, 28.5%)" stroke-width="1.5"></path><path d="M1445.66 56.25L1586.56 88.04" stroke="hsl(190, 64.3%, 28.5%)" stroke-width="1.5"></path><path d="M1445.66 56.25L1597.69 -46.51" stroke="hsl(190, 64.3%, 28.5%)" stroke-width="1.5"></path><path d="M1407.97 341.59L1407.97 341.59" stroke="hsl(190, 64.3%, 28.5%)" stroke-width="1.5"></path><path d="M1389.43 553.82L1389.43 553.82" stroke="hsl(190, 64.3%, 28.5%)" stroke-width="1.5"></path><path d="M1389.43 553.82L1426.6 653.65" stroke="hsl(190, 64.3%, 28.5%)" stroke-width="1.5"></path><path d="M1389.43 553.82L1561.36 526.37" stroke="hsl(190, 64.3%, 28.5%)" stroke-width="1.5"></path><path d="M1389.43 553.82L1307.58 398.05" stroke="hsl(190, 64.3%, 28.5%)" stroke-width="1.5"></path><path d="M1389.43 553.82L1254.05 697.09" stroke="hsl(190, 64.3%, 28.5%)" stroke-width="1.5"></path><path d="M1389.43 553.82L1407.97 341.59" stroke="hsl(190, 64.3%, 28.5%)" stroke-width="1.5"></path><path d="M1426.6 653.65L1426.6 653.65" stroke="hsl(190, 64.3%, 28.5%)" stroke-width="1.5"></path><path d="M1426.6 653.65L1588.04 666.54" stroke="hsl(190, 64.3%, 28.5%)" stroke-width="1.5"></path><path d="M1426.6 653.65L1254.05 697.09" stroke="hsl(190, 64.3%, 28.5%)" stroke-width="1.5"></path><path d="M1426.6 653.65L1561.36 526.37" stroke="hsl(190, 64.3%, 28.5%)" stroke-width="1.5"></path><path d="M1597.69 -46.51L1597.69 -46.51" stroke="hsl(190, 64.3%, 28.5%)" stroke-width="1.5"></path><path d="M1597.69 -46.51L1586.56 88.04" stroke="hsl(190, 64.3%, 28.5%)" stroke-width="1.5"></path><path d="M1597.69 -46.51L1401.03 -45.35" stroke="hsl(190, 64.3%, 28.5%)" stroke-width="1.5"></path><path d="M1586.56 88.04L1586.56 88.04" stroke="hsl(190, 64.3%, 28.5%)" stroke-width="1.5"></path><path d="M1597.42 253.8L1597.42 253.8" stroke="hsl(190, 64.3%, 28.5%)" stroke-width="1.5"></path><path d="M1597.42 253.8L1543.53 397.85" stroke="hsl(190, 64.3%, 28.5%)" stroke-width="1.5"></path><path d="M1597.42 253.8L1586.56 88.04" stroke="hsl(190, 64.3%, 28.5%)" stroke-width="1.5"></path><path d="M1561.36 526.37L1561.36 526.37" stroke="hsl(190, 64.3%, 28.5%)" stroke-width="1.5"></path><path d="M1561.36 526.37L1588.04 666.54" stroke="hsl(190, 64.3%, 28.5%)" stroke-width="1.5"></path><path d="M1561.36 526.37L1407.97 341.59" stroke="hsl(190, 64.3%, 28.5%)" stroke-width="1.5"></path><path d="M1588.04 666.54L1588.04 666.54" stroke="hsl(190, 64.3%, 28.5%)" stroke-width="1.5"></path><path d="M1588.04 666.54L1389.43 553.82" stroke="hsl(190, 64.3%, 28.5%)" stroke-width="1.5"></path><path d="M1588.04 666.54L1543.53 397.85" stroke="hsl(190, 64.3%, 28.5%)" stroke-width="1.5"></path><path d="M1588.04 666.54L1310.38 544.46" stroke="hsl(190, 64.3%, 28.5%)" stroke-width="1.5"></path><circle r="25" cx="-54.56" cy="828.17" fill="url(#SvgjsRadialGradient1023)"></circle><circle r="25" cx="64.13" cy="503.82" fill="url(#SvgjsRadialGradient1023)"></circle><circle r="25" cx="359.33" cy="814.37" fill="url(#SvgjsRadialGradient1023)"></circle><circle r="25" cx="958.45" cy="353.75" fill="url(#SvgjsRadialGradient1023)"></circle><circle r="25" cx="971.46" cy="711.99" fill="url(#SvgjsRadialGradient1023)"></circle><circle r="25" cx="1138.1" cy="639.34" fill="url(#SvgjsRadialGradient1023)"></circle><circle r="25" cx="1307.58" cy="398.05" fill="url(#SvgjsRadialGradient1023)"></circle><circle r="25" cx="1426.96" cy="225.11" fill="url(#SvgjsRadialGradient1023)"></circle><circle r="25" cx="1543.53" cy="397.85" fill="url(#SvgjsRadialGradient1023)"></circle><circle r="5" cx="-78.73" cy="536.2" fill="#8aa8ae"></circle><circle r="5" cx="-73.93" cy="670.71" fill="#8aa8ae"></circle><circle r="5" cx="46.16" cy="703.33" fill="#8aa8ae"></circle><circle r="5" cx="63.29" cy="850.15" fill="#8aa8ae"></circle><circle r="5" cx="231.06" cy="696.19" fill="#8aa8ae"></circle><circle r="5" cx="253.73" cy="843.92" fill="#8aa8ae"></circle><circle r="5" cx="353.22" cy="528.3" fill="#8aa8ae"></circle><circle r="5" cx="366.94" cy="651.38" fill="#8aa8ae"></circle><circle r="5" cx="487.9" cy="493.06" fill="#8aa8ae"></circle><circle r="5" cx="512.01" cy="658.13" fill="#8aa8ae"></circle><circle r="5" cx="502.57" cy="855.64" fill="#8aa8ae"></circle><circle r="5" cx="685.8" cy="539.07" fill="#8aa8ae"></circle><circle r="5" cx="702.71" cy="696.24" fill="#8aa8ae"></circle><circle r="5" cx="707.5" cy="845.93" fill="#8aa8ae"></circle><circle r="5" cx="822.11" cy="385.81" fill="#8aa8ae"></circle><circle r="5" cx="836.22" cy="670.67" fill="#8aa8ae"></circle><circle r="5" cx="831.01" cy="818.21" fill="#8aa8ae"></circle><circle r="5" cx="1002.43" cy="554.99" fill="#8aa8ae"></circle><circle r="5" cx="996.79" cy="836.75" fill="#8aa8ae"></circle><circle r="5" cx="1123.17" cy="192.92" fill="#8aa8ae"></circle><circle r="5" cx="1113.31" cy="370.14" fill="#8aa8ae"></circle><circle r="5" cx="1104.16" cy="543.68" fill="#8aa8ae"></circle><circle r="5" cx="1160.87" cy="797.75" fill="#8aa8ae"></circle><circle r="5" cx="1239.97" cy="-66.87" fill="#8aa8ae"></circle><circle r="5" cx="1255.99" cy="85.33" fill="#8aa8ae"></circle><circle r="5" cx="1285.2" cy="188.42" fill="#8aa8ae"></circle><circle r="5" cx="1310.38" cy="544.46" fill="#8aa8ae"></circle><circle r="5" cx="1254.05" cy="697.09" fill="#8aa8ae"></circle><circle r="5" cx="1301.56" cy="851.66" fill="#8aa8ae"></circle><circle r="5" cx="1401.03" cy="-45.35" fill="#8aa8ae"></circle><circle r="5" cx="1445.66" cy="56.25" fill="#8aa8ae"></circle><circle r="5" cx="1407.97" cy="341.59" fill="#8aa8ae"></circle><circle r="5" cx="1389.43" cy="553.82" fill="#8aa8ae"></circle><circle r="5" cx="1426.6" cy="653.65" fill="#8aa8ae"></circle><circle r="5" cx="1597.69" cy="-46.51" fill="#8aa8ae"></circle><circle r="5" cx="1586.56" cy="88.04" fill="#8aa8ae"></circle><circle r="5" cx="1597.42" cy="253.8" fill="#8aa8ae"></circle><circle r="5" cx="1561.36" cy="526.37" fill="#8aa8ae"></circle><circle r="5" cx="1588.04" cy="666.54" fill="#8aa8ae"></circle></g><defs><mask id="SvgjsMask1022"><rect width="1465" height="630" fill="#ffffff"></rect></mask><radialGradient id="SvgjsRadialGradient1023"><stop stop-color="#ffffff" offset="0.1"></stop><stop stop-color="rgba(20, 80, 92, 1)" offset="0.2"></stop><stop stop-color="rgba(20, 80, 92, 0)" offset="1"></stop></radialGradient></defs></svg>