<svg xmlns="http://www.w3.org/2000/svg" version="1.1" xmlns:xlink="http://www.w3.org/1999/xlink" xmlns:svgjs="http://svgjs.com/svgjs" width="1440" height="560" preserveAspectRatio="none" viewBox="0 0 1440 560"><g mask="url(&quot;#SvgjsMask1004&quot;)" fill="none"><rect width="1440" height="560" x="0" y="0" fill="url(#SvgjsLinearGradient1005)"></rect><path d="M1440 0L824.59 0L1440 96.77z" fill="rgba(255, 255, 255, .1)"></path><path d="M824.59 0L1440 96.77L1440 296.15999999999997L712.35 0z" fill="rgba(255, 255, 255, .075)"></path><path d="M712.35 0L1440 296.15999999999997L1440 353.27L652.24 0z" fill="rgba(255, 255, 255, .05)"></path><path d="M652.24 0L1440 353.27L1440 389.62L501.15999999999997 0z" fill="rgba(255, 255, 255, .025)"></path><path d="M0 560L677.1 560L0 348.09000000000003z" fill="rgba(0, 0, 0, .1)"></path><path d="M0 348.09000000000003L677.1 560L681.5 560L0 290.89000000000004z" fill="rgba(0, 0, 0, .075)"></path><path d="M0 290.89L681.5 560L888.16 560L0 178.70999999999998z" fill="rgba(0, 0, 0, .05)"></path><path d="M0 178.70999999999998L888.16 560L1198 560L0 90.07999999999998z" fill="rgba(0, 0, 0, .025)"></path></g><defs><mask id="SvgjsMask1004"><rect width="1440" height="560" fill="#ffffff"></rect></mask><linearGradient x1="15.28%" y1="-39.29%" x2="84.72%" y2="139.29%" gradientUnits="userSpaceOnUse" id="SvgjsLinearGradient1005"><stop stop-color="#0e2a47" offset="0"></stop><stop stop-color="rgba(20, 80, 92, 1)" offset="1"></stop></linearGradient></defs></svg>